<?xml version="1.0" encoding="utf-8"?>
<!-- Generator: Adobe Illustrator 24.3.0, SVG Export Plug-In . SVG Version: 6.00 Build 0)  -->
<svg version="1.1" xmlns="http://www.w3.org/2000/svg" xmlns:xlink="http://www.w3.org/1999/xlink" x="0px" y="0px"
	 viewBox="0 0 100 100" style="enable-background:new 0 0 100 100;" xml:space="preserve">
<style type="text/css">
	.st0{display:none;}
	.st1{display:inline;}
	.st2{fill:#FFFFFF;}
	.st3{fill-rule:evenodd;clip-rule:evenodd;fill:#FFFFFF;}
</style>
<g id="Ebene_1" class="st0">
	<g id="Gruppe_50" transform="translate(0 0)" class="st1">
		<g id="Gruppe_49" transform="translate(0)">
			<path id="Pfad_44" class="st2" d="M60.9,17.5l-0.4,0c-0.7,0-1.5-0.1-2.2-0.1c-0.9,0-1.9,0-2.8,0.2c-2.5,0.3-4.8,1.2-6.8,2.7
				c-1.8,1.4-3.2,3.3-4.1,5.5c-0.8,2-1.2,4.1-1.2,6.3c0,0.2,0,0.3,0,0.5l-0.1,4.1c0,1.4-0.1,2.7-0.1,4.1h-4.9l-4.9,0
				c0,1.4-0.1,2.8-0.1,4.2c-0.1,2.3-0.1,4.6-0.2,6.9H36h2.7h2.1H43c-0.1,3.4-0.2,6.7-0.2,10.1c-0.1,5.6-0.3,11.2-0.4,16.8
				c2,0.3,4,0.5,5.9,0.5c2,0,4-0.1,6-0.4c0.1-3.4,0.2-6.7,0.2-10.1c0.1-2.2,0.1-4.5,0.2-6.7c0.1-3.4,0.2-6.7,0.2-10.1h2.5h2.4h1.9
				h2.1c0.7-3.7,1.3-7.4,2-11.1h-3.2h-3.3h-2h-2.1c0-0.9,0-1.7,0.1-2.5l0.1-2.5c0-0.6,0-1.1,0-1.7c0-0.1,0-0.2,0-0.3
				c0-0.6,0.1-1.2,0.2-1.8c0.3-1.2,0.9-2.3,1.9-3.1c1.1-0.8,2.4-1.2,3.7-1.2h0.5c0.6,0,1.2,0,1.8,0h3l0-1.8c0-1.4,0.1-2.8,0.1-4.1
				c0-1.2,0.1-2.4,0.1-3.5C64.9,17.9,63,17.7,60.9,17.5z"/>
			<path id="Pfad_45" class="st2" d="M99.8,49.3V22C99.8,9.9,90,0.2,78,0.1H22C10,0.2,0.2,9.9,0.2,22v27.3c0,0.5,0,0.9,0,1.4V78
				C0.2,90.1,10,99.8,22,99.9H78c12.1,0,21.9-9.8,21.9-21.9V50.7C99.8,50.2,99.8,49.7,99.8,49.3z M95.1,50.6V78
				c0,9.5-7.7,17.1-17.1,17.1H22c-9.5,0-17.1-7.7-17.1-17.1V50.6c0-0.4,0-0.8,0-1.3V22c0-9.5,7.7-17.1,17.1-17.1H78
				c9.5,0,17.1,7.7,17.1,17.1v27.3C95.1,49.7,95.1,50.2,95.1,50.6L95.1,50.6z"/>
		</g>
	</g>
</g>
<g id="Ebene_2">
	<g id="Gruppe_53" transform="translate(37.379)">
		<path id="Pfad_51" class="st2" d="M4.3,28.3c7.6-0.2,15.2-0.1,22.7,0.2c2.5,0.1,4.9,0.3,7.4,0.5c1.3,0.1,2.7,0.4,3.9,1
			c2.1,1,3.6,2.9,4.2,5.2c0.6,2.9,1,5.8,1.1,8.7c0.3,4.5,0.2,9-0.1,13.5c-0.1,2.5-0.5,5-1,7.4c-0.6,2.3-2.1,4.2-4.2,5.2
			c-1.4,0.6-2.8,0.9-4.3,1c-3.8,0.4-7.6,0.5-11.4,0.7c-8.1,0.2-16.2,0.2-24.3-0.2c-3.1-0.1-6.2-0.4-9.2-0.8c-2.4-0.4-4.4-1.9-5.6-4
			c-0.6-1.4-1-2.8-1.2-4.3c-0.5-4-0.8-8.1-0.8-12.1c0-4,0.2-7.9,0.7-11.8c0.1-1.8,0.6-3.5,1.4-5.2c0.8-1.4,2-2.5,3.4-3.2
			c1.4-0.6,2.9-0.9,4.4-1C-4.4,28.6,0,28.5,4.3,28.3 M6.4,40.7c0,6.2,0,12.4,0,18.6L22.5,50C17.1,46.9,11.8,43.8,6.4,40.7L6.4,40.7z
			"/>
		<path id="Pfad_52" class="st2" d="M62.5,49.3V22c0-12.1-9.8-21.9-21.9-21.9h-55.9c-12.1,0-21.9,9.8-21.9,21.9v27.3
			c0,0.5,0,0.9,0,1.4V78c0,12.1,9.8,21.9,21.9,21.9h55.9c12.1,0,21.9-9.8,21.9-21.9V50.7C62.5,50.2,62.5,49.7,62.5,49.3z M57.7,50.6
			V78c0,9.5-7.7,17.1-17.1,17.1h-55.9c-9.5,0-17.1-7.7-17.1-17.1V50.6c0-0.4,0-0.8,0-1.3V22c0-9.5,7.7-17.1,17.1-17.1h55.9
			c9.5,0,17.1,7.7,17.1,17.1v27.3C57.7,49.7,57.7,50.2,57.7,50.6L57.7,50.6z"/>
	</g>
</g>
<g id="Ebene_3" class="st0">
	<g id="Gruppe_59" transform="translate(74.758)" class="st1">
		<path id="Pfad_60-2" class="st2" d="M25.1,49.3V22c0-12.1-9.8-21.9-21.9-21.9h-55.9c-12.1,0-21.9,9.8-21.9,21.9v27.3
			c0,0.5,0,0.9,0,1.4V78c0,12.1,9.8,21.9,21.9,21.9H3.2c12.1,0,21.9-9.8,21.9-21.9V50.7C25.1,50.2,25.1,49.7,25.1,49.3z M20.3,50.6
			V78c0,9.5-7.7,17.1-17.1,17.1h-55.9c-9.5,0-17.1-7.7-17.1-17.1V50.6c0-0.4,0-0.8,0-1.3V22c0-9.5,7.7-17.1,17.1-17.1H3.2
			c9.5,0,17.1,7.7,17.1,17.1v27.3C20.3,49.7,20.3,50.2,20.3,50.6z"/>
		<g id="xing-logo" transform="translate(5.721 4.373)">
			<g id="Gruppe_58" transform="translate(0 0)">
				<path id="Pfad_61" class="st2" d="M-48,59.3c1.2-0.1,2.2-0.8,2.7-1.9c6.7-11.9,10.2-18.2,10.5-18.7l-6.7-11.7
					c-0.5-1.1-1.5-1.8-2.7-1.8H-54c-0.5-0.1-1,0.2-1.3,0.6c-0.3,0.5-0.3,1.1,0,1.5l6.6,11.4c0,0,0,0,0,0l-10.4,18.3
					c-0.3,0.5-0.3,1,0,1.5c0.3,0.5,0.7,0.7,1.3,0.7L-48,59.3z"/>
				<path id="Pfad_62" class="st2" d="M-3.1,11.9H-13c-1.2,0.1-2.2,0.8-2.6,1.8l-21.7,38.5l13.9,25.5c0.5,1.1,1.5,1.8,2.7,1.8h9.8
					c0.7,0.1,1.4-0.4,1.5-1.2c0-0.3,0-0.7-0.2-1l-13.8-25.2v0L-1.9,14c0.3-0.5,0.3-1.1,0-1.5C-2.1,12.1-2.6,11.8-3.1,11.9z"/>
			</g>
		</g>
	</g>
</g>
<g id="Ebene_4" class="st0">
	<g id="Gruppe_57" transform="translate(111.447)" class="st1">
		<g id="Gruppe_56" transform="translate(6.807 6.422)">
			<path id="Pfad_57" class="st3" d="M-87.7,17.4c3.3-0.4,6.2,2,6.6,5.2c0.3,2.7-1.3,5.3-3.9,6.3c-3.2,1.1-6.7-0.7-7.7-3.9
				c-0.3-0.9-0.4-1.9-0.2-2.9C-92.4,19.6-90.3,17.7-87.7,17.4z"/>
			<path id="Pfad_58" class="st3" d="M-43.6,66.5h-10.3V54.7c0-5.2,0.5-11.2-3.1-12.6c-1.9-0.7-4-0.5-5.7,0.5
				c-2.5,1.5-3.1,5.7-3.2,10.3c0,4.9,0.1,10.3-0.1,13.5h-9.6V33.6h9.7v4.5c2-3,5.2-5,8.8-5.3C-39.8,31.3-44.2,50.9-43.6,66.5z"/>
			<path id="Pfad_59" class="st3" d="M-92,33.6h10v32.9h-10.1V34C-92.2,33.9-92.2,33.7-92,33.6z"/>
		</g>
		<path id="Pfad_60" class="st2" d="M-11.6,49.3V22c0-12.1-9.8-21.9-21.9-21.9h-55.9c-12.1,0-21.9,9.8-21.9,21.9v27.3
			c0,0.5,0,0.9,0,1.4V78c0,12.1,9.8,21.9,21.9,21.9h55.9c12.1,0,21.9-9.8,21.9-21.9V50.7C-11.6,50.2-11.6,49.7-11.6,49.3z
			 M-16.4,50.6V78c0,9.5-7.7,17.1-17.1,17.1h-55.9c-9.5,0-17.1-7.7-17.1-17.1V50.6c0-0.4,0-0.8,0-1.3V22c0-9.5,7.7-17.1,17.1-17.1
			h55.9c9.5,0,17.1,7.7,17.1,17.1v27.3C-16.4,49.7-16.4,50.2-16.4,50.6z"/>
	</g>
</g>
</svg>
