<?xml version="1.0" encoding="utf-8"?>
<!-- Generator: Adobe Illustrator 24.3.0, SVG Export Plug-In . SVG Version: 6.00 Build 0)  -->
<svg version="1.1" id="Ebene_1" xmlns="http://www.w3.org/2000/svg" xmlns:xlink="http://www.w3.org/1999/xlink" x="0px" y="0px"
	 viewBox="0 0 250 250" style="enable-background:new 0 0 250 250;" xml:space="preserve">
<style type="text/css">
	.st0{fill:#2A6DB1;}
	.st1{fill:#FFFFFF;}
</style>
<g id="Gruppe_591" transform="translate(-1246.083 -223)">
	<g id="Gruppe_471" transform="translate(1246.083 223)">
		<g id="Gruppe_392" transform="translate(0)">
			<path id="Pfad_290" class="st0" d="M125,250C56,249.9,0.1,194,0,125C0.1,56,56,0.1,125,0c69,0.1,124.9,56,125,125
				C249.9,194,194,249.9,125,250z M125,11.5C62.4,11.6,11.6,62.4,11.5,125c0.1,62.6,50.8,113.4,113.5,113.5
				c62.6-0.1,113.4-50.8,113.5-113.5C238.4,62.4,187.6,11.6,125,11.5L125,11.5z"/>
		</g>
	</g>
	<path id="Pfad_587" class="st1" d="M1371.2,290.2c-10,0-40.2,5-40.2,41.2c0,27.9,34.2,42.2,39.2,87.4c0,0.5,0.5,1,1,1
		c0.5,0,1-0.5,1-1c7-45.2,39.2-59.5,39.2-87.4C1411.3,295.2,1381.2,290.2,1371.2,290.2z M1371.2,344.5c-7.8,0-14.1-6.3-14.1-14.1
		c0-7.8,6.3-14.1,14.1-14.1c7.8,0,14.1,6.3,14.1,14.1C1385.2,338.2,1378.9,344.5,1371.2,344.5
		C1371.2,344.5,1371.2,344.5,1371.2,344.5L1371.2,344.5z"/>
</g>
</svg>
