<?xml version="1.0" encoding="utf-8"?>
<!-- Generator: Adobe Illustrator 24.3.0, SVG Export Plug-In . SVG Version: 6.00 Build 0)  -->
<svg version="1.1" id="Ebene_1" xmlns="http://www.w3.org/2000/svg" xmlns:xlink="http://www.w3.org/1999/xlink" x="0px" y="0px"
	 viewBox="0 0 250 250" style="enable-background:new 0 0 250 250;" xml:space="preserve">
<style type="text/css">
	.st0{fill:#2A6DB1;}
	.st1{fill:#FFFFFF;}
</style>
<g id="Gruppe_592" transform="translate(-1246.083 -223)">
	<g id="Gruppe_471" transform="translate(1246.083 223)">
		<g id="Gruppe_392" transform="translate(0)">
			<path id="Pfad_290" class="st0" d="M125,250C56,249.9,0.1,194,0,125C0.1,56,56,0.1,125,0c69,0.1,124.9,56,125,125
				C249.9,194,194,249.9,125,250z M125,11.5C62.4,11.6,11.6,62.4,11.5,125c0.1,62.6,50.8,113.4,113.5,113.5
				c62.6-0.1,113.4-50.8,113.5-113.5C238.4,62.4,187.6,11.6,125,11.5L125,11.5z"/>
		</g>
	</g>
	<g id="Gruppe_589" transform="translate(2613.899 -8024.928)">
		<path id="Pfad_644" class="st1" d="M-1215.6,8369.4v-61.6c0-2.3-1.9-4.2-4.2-4.2c0,0,0,0,0,0h-72.7c-2.3,0-4.3,1.9-4.3,4.2
			c0,0,0,0,0,0v98.2c0,2.3,1.9,4.2,4.3,4.2h36.1C-1256.4,8387.7-1238.2,8369.5-1215.6,8369.4
			C-1215.6,8369.4-1215.6,8369.4-1215.6,8369.4z M-1283,8323.3h53.6v11.1h-53.6V8323.3z M-1283,8345.5h53.6v11.1h-53.6V8345.5z
			 M-1255.5,8378.9h-27.5v-11.1h27.5V8378.9z"/>
		<path id="Pfad_645" class="st1" d="M-1175,8444.8l-15.5-15.5c4.2-5.5,6.5-12.2,6.5-19.1c0-17.5-14.2-31.6-31.6-31.6c0,0,0,0,0,0
			c-17.5,0-31.6,14.2-31.6,31.6v0c0,17.5,14.2,31.6,31.6,31.6c6.9,0,13.6-2.3,19.1-6.5l15.5,15.5c0.8,0.8,1.9,1.2,3,1.2
			c1.1,0,2.2-0.4,3-1.2C-1173.4,8449.2-1173.4,8446.5-1175,8444.8z M-1238.8,8410.2c0-12.8,10.4-23.1,23.1-23.1
			c12.8,0,23.1,10.4,23.1,23.1c0,12.8-10.4,23.1-23.1,23.1C-1228.4,8433.4-1238.7,8423-1238.8,8410.2z"/>
	</g>
</g>
</svg>
