<?xml version="1.0" encoding="utf-8"?>
<!-- Generator: Adobe Illustrator 24.1.3, SVG Export Plug-In . SVG Version: 6.00 Build 0)  -->
<svg version="1.1" id="Ebene_1" xmlns="http://www.w3.org/2000/svg" xmlns:xlink="http://www.w3.org/1999/xlink" x="0px" y="0px"
	 viewBox="0 0 190 260" style="enable-background:new 0 0 190 260;" xml:space="preserve">
<style type="text/css">
	.st0{fill-rule:evenodd;clip-rule:evenodd;fill:#2A6DB1;}
	.st1{fill:#FFFFFF;}
</style>
<g>
	<path class="st0" d="M188.6,95.3c0-51.6-42-93.5-93.5-93.5S1.5,43.7,1.5,95.3c0,50.3,86.7,155.1,90.4,159.5l3.1,3.8l3.1-3.8
		c0.1-0.1,4-4.8,10-12.5c1.1,0.4,2.3,0.6,3.5,0.6c6.3,0,11.4-5.1,11.4-11.4s-5.1-11.4-11.4-11.4c-6.3,0-11.4,5.1-11.4,11.4
		c0,2.1,0.6,4,1.5,5.7c-2.8,3.6-5.1,6.5-6.8,8.6C79.3,226.3,9.7,137.5,9.7,95.3C9.7,48.2,48,9.9,95.1,9.9s85.4,38.3,85.4,85.4
		c0,17-11.8,44.5-34.3,79.9c-0.7-0.1-1.5-0.2-2.3-0.2c-6.3,0-11.4,5.1-11.4,11.4s5.1,11.4,11.4,11.4s11.4-5.1,11.4-11.4
		c0-2.5-0.8-4.9-2.3-6.8C176.6,142.5,188.6,114.1,188.6,95.3z"/>
	<path class="st1" d="M95.1,145.8c-27.9,0-50.5-22.7-50.5-50.5s22.7-50.5,50.5-50.5s50.5,22.7,50.5,50.5S122.9,145.8,95.1,145.8z
		 M95.1,54.8c-22.4,0-40.5,18.2-40.5,40.5c0,22.4,18.2,40.5,40.5,40.5s40.5-18.2,40.5-40.5C135.6,73,117.4,54.8,95.1,54.8z"/>
</g>
</svg>
