<?xml version="1.0" encoding="utf-8"?>
<!-- Generator: Adobe Illustrator 24.3.0, SVG Export Plug-In . SVG Version: 6.00 Build 0)  -->
<svg version="1.1" id="Ebene_1" xmlns="http://www.w3.org/2000/svg" xmlns:xlink="http://www.w3.org/1999/xlink" x="0px" y="0px"
	 viewBox="0 0 250 250" style="enable-background:new 0 0 250 250;" xml:space="preserve">
<style type="text/css">
	.st0{fill:#2A6DB1;}
	.st1{fill:#FFFFFF;}
</style>
<g id="Gruppe_395" transform="translate(0)">
	<path id="Pfad_292" class="st0" d="M125,250C56,249.9,0.1,194,0,125C0.1,56,56,0.1,125,0c69,0.1,124.9,56,125,125
		C249.9,194,194,249.9,125,250z M125,11.5C62.4,11.6,11.6,62.4,11.5,125c0.1,62.6,50.8,113.4,113.5,113.5
		c62.6-0.1,113.4-50.8,113.5-113.5C238.4,62.4,187.6,11.6,125,11.5L125,11.5z"/>
	<g id="Gruppe_394" transform="translate(39.621 48.078)">
		<path id="Pfad_293" class="st1" d="M86,52.2c-14.4,0-26.2,11.7-26.2,26.2c0,14.5,11.7,26.2,26.2,26.2c14.5,0,26.2-11.7,26.2-26.2
			C112.2,63.9,100.5,52.2,86,52.2z"/>
		<path id="Pfad_294" class="st1" d="M146.4,31.2h-25.6L116,20.6c-1.7-3.7-5.4-6.1-9.5-6.1H65.6c-4.1,0-7.8,2.4-9.5,6.1l-4.7,10.5
			H25.7c-7.6,0-13.7,6.2-13.7,13.7v71.5c0,7.6,6.2,13.7,13.7,13.7h120.6c7.6,0,13.7-6.1,13.7-13.7c0,0,0,0,0,0V44.9
			C160.1,37.3,153.9,31.2,146.4,31.2C146.4,31.2,146.4,31.2,146.4,31.2z M86,114.1c-19.7,0-35.7-16-35.8-35.8
			c0-19.7,16-35.7,35.8-35.7c19.7,0,35.7,16,35.7,35.7C121.8,98.1,105.8,114.1,86,114.1L86,114.1z"/>
	</g>
</g>
</svg>
