<?xml version="1.0" encoding="utf-8"?>
<!-- Generator: Adobe Illustrator 24.3.0, SVG Export Plug-In . SVG Version: 6.00 Build 0)  -->
<svg version="1.1" id="Ebene_1" xmlns="http://www.w3.org/2000/svg" xmlns:xlink="http://www.w3.org/1999/xlink" x="0px" y="0px"
	 viewBox="0 0 250 250" style="enable-background:new 0 0 250 250;" xml:space="preserve">
<style type="text/css">
	.st0{fill:#2A6DB1;}
	.st1{fill:#FFFFFF;}
</style>
<g>
	<g id="Gruppe_403" transform="translate(0)">
		<path id="Pfad_303" class="st0" d="M125,250C56,249.9,0.1,194,0,125C0.1,56,56,0.1,125,0c69,0.1,124.9,56,125,125
			C249.9,194,194,249.9,125,250z M125,11.5C62.4,11.6,11.6,62.4,11.5,125c0.1,62.6,50.8,113.4,113.5,113.5
			c62.6-0.1,113.4-50.8,113.5-113.5C238.4,62.4,187.6,11.6,125,11.5L125,11.5z"/>
	</g>
	<path id="Pfad_588" class="st1" d="M166.4,78.3H81.7c-5.3,0-9.7,4.3-9.7,9.7v94.4l24.1-24.1h70.2c5.3,0,9.7-4.3,9.7-9.7V88
		C176.1,82.7,171.8,78.4,166.4,78.3z M124.1,144h-34v-11.4h34V144z M158.1,125.5h-68v-11.4h68V125.5z M158.1,107.1h-68V95.6h68
		V107.1z"/>
</g>
</svg>
