<?xml version="1.0" encoding="utf-8"?>
<!-- Generator: Adobe Illustrator 24.3.0, SVG Export Plug-In . SVG Version: 6.00 Build 0)  -->
<svg version="1.1" id="Ebene_1" xmlns="http://www.w3.org/2000/svg" xmlns:xlink="http://www.w3.org/1999/xlink" x="0px" y="0px"
	 viewBox="0 0 250 250" style="enable-background:new 0 0 250 250;" xml:space="preserve">
<style type="text/css">
	.st0{fill:#2A6DB1;}
	.st1{fill:#FFFFFF;}
</style>
<g id="Gruppe_396" transform="translate(0)">
	<path id="Pfad_295" class="st0" d="M125,250C56,249.9,0.1,194,0,125C0.1,56,56,0.1,125,0c69,0.1,124.9,56,125,125
		C249.9,194,194,249.9,125,250z M125,11.5C62.4,11.6,11.6,62.4,11.5,125c0.1,62.6,50.8,113.4,113.5,113.5
		c62.6-0.1,113.4-50.8,113.5-113.5C238.4,62.4,187.6,11.6,125,11.5L125,11.5z"/>
</g>
<path id="Pfad_296" class="st1" d="M107.1,177.4c-2.7-0.4-5.1-1.7-7.1-3.5l-36.7-34.6c-5.5-5.2-5.7-13.8-0.6-19.3
	c5.2-5.5,13.8-5.8,19.3-0.6c0,0,0,0,0,0l26.4,24.8L167,77.1c5-5.7,13.6-6.3,19.3-1.3c5.7,5,6.3,13.6,1.3,19.3l-67.9,77.9
	c-2.4,2.8-5.9,4.5-9.6,4.7C109.1,177.6,108.1,177.6,107.1,177.4z"/>
</svg>
