<?xml version="1.0" encoding="utf-8"?>
<!-- Generator: Adobe Illustrator 24.3.0, SVG Export Plug-In . SVG Version: 6.00 Build 0)  -->
<svg version="1.1" id="Ebene_1" xmlns="http://www.w3.org/2000/svg" xmlns:xlink="http://www.w3.org/1999/xlink" x="0px" y="0px"
	 viewBox="0 0 250 250" style="enable-background:new 0 0 250 250;" xml:space="preserve">
<style type="text/css">
	.st0{fill:#2A6DB1;}
	.st1{fill:#FFFFFF;}
</style>
<g>
	<g id="Gruppe_398" transform="translate(0)">
		<path id="Pfad_297" class="st0" d="M125,250C56,249.9,0.1,194,0,125C0.1,56,56,0.1,125,0c69,0.1,124.9,56,125,125
			C249.9,194,194,249.9,125,250z M125,11.5C62.4,11.6,11.6,62.4,11.5,125c0.1,62.6,50.8,113.4,113.5,113.5
			c62.6-0.1,113.4-50.8,113.5-113.5C238.4,62.4,187.6,11.6,125,11.5z"/>
	</g>
	<g id="Gruppe_399" transform="translate(45.719 39.437)">
		<path id="Pfad_298" class="st1" d="M14.7,141.8h36.1V41.7c0-1.4-1.1-2.6-2.6-2.6c0,0,0,0,0,0h-31c-1.4,0-2.6,1.1-2.6,2.6l0,0
			V141.8z"/>
		<path id="Pfad_299" class="st1" d="M61.2,141.8h36.1V15.2c0-1.4-1.1-2.6-2.6-2.6h-31c-1.4,0-2.6,1.1-2.6,2.6c0,0,0,0,0,0
			L61.2,141.8z"/>
		<path id="Pfad_300" class="st1" d="M107.7,74.7v67.2h36.1V74.7c0-1.4-1.1-2.6-2.6-2.6c0,0,0,0,0,0h-31
			C108.9,72.1,107.7,73.2,107.7,74.7z"/>
	</g>
</g>
</svg>
