<?xml version="1.0" encoding="utf-8"?>
<!-- Generator: Adobe Illustrator 24.3.0, SVG Export Plug-In . SVG Version: 6.00 Build 0)  -->
<svg version="1.1" id="Ebene_1" xmlns="http://www.w3.org/2000/svg" xmlns:xlink="http://www.w3.org/1999/xlink" x="0px" y="0px"
	 viewBox="0 0 250 250" style="enable-background:new 0 0 250 250;" xml:space="preserve">
<style type="text/css">
	.st0{fill:#2A6DB1;}
	.st1{fill:#FFFFFF;}
</style>
<g id="Gruppe_403" transform="translate(0)">
	<path id="Pfad_303" class="st0" d="M125,250C56,249.9,0.1,194,0,125C0.1,56,56,0.1,125,0c69,0.1,124.9,56,125,125
		C249.9,194,194,249.9,125,250z M125,11.5C62.4,11.6,11.6,62.4,11.5,125c0.1,62.6,50.8,113.4,113.5,113.5
		c62.6-0.1,113.4-50.8,113.5-113.5C238.4,62.4,187.6,11.6,125,11.5L125,11.5z"/>
</g>
<path id="Pfad_590" class="st1" d="M180.8,64.2c0,0-66.3,5.6-98.5,44.6c-20.6,25-17.4,46.4-7.3,60.1c5.5-12.7,25.8-53.8,61.3-64.9
	c0,0-34.7,25.2-45.7,77.8c1.6,0.7,3.2,1.4,4.8,1.8c35.1,9.8,62.6-18,71.3-34.5C190.9,103.4,180.8,64.2,180.8,64.2z"/>
</svg>
