<?xml version="1.0" encoding="utf-8"?>
<!-- Generator: Adobe Illustrator 24.3.0, SVG Export Plug-In . SVG Version: 6.00 Build 0)  -->
<svg version="1.1" id="Ebene_1" xmlns="http://www.w3.org/2000/svg" xmlns:xlink="http://www.w3.org/1999/xlink" x="0px" y="0px"
	 viewBox="0 0 250 250" style="enable-background:new 0 0 250 250;" xml:space="preserve">
<style type="text/css">
	.st0{fill:#2A6DB1;}
	.st1{fill:#FFFFFF;}
</style>
<g id="Gruppe_595" transform="translate(-864.813 -363)">
	<g id="Gruppe_535" transform="translate(864.813 363)">
		<g id="Gruppe_403" transform="translate(0)">
			<path id="Pfad_303" class="st0" d="M125,250C56,249.9,0.1,194,0,125C0.1,56,56,0.1,125,0c69,0.1,124.9,56,125,125
				C249.9,194,194,249.9,125,250z M125,11.5C62.4,11.6,11.6,62.4,11.5,125c0.1,62.6,50.8,113.4,113.5,113.5
				c62.6-0.1,113.4-50.8,113.5-113.5C238.4,62.4,187.6,11.6,125,11.5L125,11.5z"/>
		</g>
	</g>
	<path id="Pfad_591" class="st1" d="M1056.7,512.4c-6.3-9.6-26.7-30.9-81.5-26c10-13.3,27.5-38.6,27.5-52.1
		c0-18.9-15.3-34.2-34.2-34.2s-34.2,15.3-34.2,34.2c0,17.5,29.5,54.8,33.7,60.1c1,1.6,2.9,2.5,4.8,2.3c52-5.5,70.1,13,75.5,21.2
		c5.1,7.7,5.9,16.6,2.2,23.2c-3.1,5.5-8.8,8.3-16,8c-7.6-0.3-14.8-6.1-22.5-12.3c-12.4-9.9-27.9-22.3-49.1-11.7
		c-7.2,3.4-12.5,9.9-14.2,17.6c-1.7,7.9,0.2,16.1,5.3,22.4c7.7,9.6,21.5,10.9,28.7,10.9c1.5,0,3.1-0.1,4.6-0.2
		c2.8-0.3,4.8-2.8,4.5-5.5c-0.3-2.8-2.8-4.8-5.5-4.5c-0.2,0-17.4,1.6-24.4-7c-3.1-3.9-4.3-9-3.3-13.9c1.1-4.8,4.4-8.8,8.9-10.8
		c15.5-7.7,26.1,0.8,38.4,10.6c8.6,6.9,17.5,14,28.4,14.5c11,0.5,20.2-4.3,25.2-13.1C1064.8,536.2,1063.8,523.3,1056.7,512.4z
		 M954.1,436.5c0-7.9,6.4-14.4,14.4-14.4c7.9,0,14.4,6.4,14.4,14.4c0,0,0,0,0,0c0,7.9-6.4,14.4-14.4,14.4c0,0,0,0,0,0
		C960.5,450.8,954.1,444.4,954.1,436.5C954.1,436.5,954.1,436.5,954.1,436.5L954.1,436.5z"/>
</g>
</svg>
