<?xml version="1.0" encoding="utf-8"?>
<!-- Generator: Adobe Illustrator 24.3.0, SVG Export Plug-In . SVG Version: 6.00 Build 0)  -->
<svg version="1.1" id="Ebene_1" xmlns="http://www.w3.org/2000/svg" xmlns:xlink="http://www.w3.org/1999/xlink" x="0px" y="0px"
	 viewBox="0 0 250 250" style="enable-background:new 0 0 250 250;" xml:space="preserve">
<style type="text/css">
	.st0{fill:#2A6DB1;}
	.st1{fill:none;stroke:#FFFFFF;stroke-width:4;stroke-miterlimit:10;}
</style>
<g id="Gruppe_421" transform="translate(0)">
	<path id="Pfad_452" class="st0" d="M125,250C56,249.9,0.1,194,0,125C0.1,56,56,0.1,125,0c69,0.1,124.9,56,125,125
		C249.9,194,194,249.9,125,250z M125,11.5C62.4,11.6,11.6,62.4,11.5,125c0.1,62.6,50.8,113.4,113.5,113.5
		c62.6-0.1,113.4-50.8,113.5-113.5C238.4,62.4,187.6,11.6,125,11.5L125,11.5z"/>
</g>
<path id="Pfad_453" class="st1" d="M185.9,158.7c0,0,0-0.1,0-0.1c-0.5-2.4-2-4.4-4.1-5.5l-24-14.2c-0.1-0.1-0.3-0.2-0.5-0.2
	c-1.3-0.6-2.7-0.9-4.1-0.8c-2.5,0-4.8,0.9-6.7,2.5l-0.1,0.1l-7,7.1l-0.1,0l-0.1,0l-1.1-0.2c-1.4-0.4-2.7-0.9-3.9-1.6
	c-2.4-1.3-4.8-2.8-7-4.5c-3.5-2.6-6.7-5.5-9.7-8.7c-3.1-3-6-6.2-8.6-9.6c-1.7-2.2-3.1-4.6-4.4-7c-0.9-1.6-1.5-3.3-2-5.1
	c0-0.1,0-0.1,0.1-0.2l0-0.1l6-6c1.4-1.4,2.3-3.1,2.7-5.1c0.5-2,0.2-4-0.8-5.8L97,68.4c0,0-0.1-0.1-0.1-0.1c-0.7-1.1-1.6-2.1-2.6-2.9
	c-1.2-0.9-2.7-1.4-4.2-1.4c-2.1,0-4.1,0.9-5.5,2.4L68.1,82.9c-1.1,1-2,2.2-2.6,3.6c-0.6,1.3-1.1,2.7-1.3,4.2c0,0.1,0,0.2,0,0.3
	c0,0.2,0,1-0.1,2.4c-0.1,2.2,0.1,4.4,0.5,6.6c0.6,3.3,1.4,6.5,2.4,9.7c1.4,4.3,3.2,8.4,5.4,12.4c2.8,5.2,5.9,10.1,9.4,14.8
	c4.4,5.9,9.3,11.5,14.7,16.7c6.4,6.6,13.4,12.6,21,17.7c5.6,3.8,11.5,7,17.7,9.7c4.3,1.9,8.8,3.3,13.5,4.1c2.6,0.5,5.3,0.7,8,0.8
	c0.7,0,1.3,0,1.8-0.1l0.5-0.1c0.1,0,0.2,0,0.3,0c1.5-0.2,2.9-0.7,4.2-1.3c1.3-0.6,2.5-1.5,3.5-2.5l16.6-16.4
	C185.4,163.8,186.3,161.2,185.9,158.7z"/>
</svg>
