<?xml version="1.0" encoding="utf-8"?>
<!-- Generator: Adobe Illustrator 24.3.0, SVG Export Plug-In . SVG Version: 6.00 Build 0)  -->
<svg version="1.1" id="Ebene_1" xmlns="http://www.w3.org/2000/svg" xmlns:xlink="http://www.w3.org/1999/xlink" x="0px" y="0px"
	 viewBox="0 0 250 200" style="enable-background:new 0 0 250 200;" xml:space="preserve">
<style type="text/css">
	.st0{fill:#FFFFFF;}
</style>
<g id="Gruppe_588" transform="translate(0 0)">
	<g id="Gruppe_587" transform="translate(43.172 237)">
		<path id="Pfad_637" class="st0" d="M75.4-62H62.5c-1.5,0-2.8,1.2-2.8,2.8s1.2,2.8,2.8,2.8h12.9c1.5,0,2.8-1.2,2.8-2.8
			S76.9-62,75.4-62z"/>
		<path id="Pfad_638" class="st0" d="M49.6-62H36.7c-1.5,0-2.8,1.2-2.8,2.8s1.2,2.8,2.8,2.8h12.9c1.5,0,2.8-1.2,2.8-2.8
			S51.1-62,49.6-62z"/>
		<path id="Pfad_639" class="st0" d="M126.9-62h-12.9c-1.5,0-2.8,1.2-2.8,2.8s1.2,2.8,2.8,2.8h12.9c1.5,0,2.8-1.2,2.8-2.8
			S128.5-62,126.9-62z"/>
		<path id="Pfad_640" class="st0" d="M101.2-62H88.3c-1.5,0-2.8,1.2-2.8,2.8s1.2,2.8,2.8,2.8h12.9c1.5,0,2.8-1.2,2.8-2.8
			S102.7-62,101.2-62z"/>
		<path id="Pfad_641" class="st0" d="M24.6-62H-5.4L8.9-76.3c1.1-1.1,1.1-2.8,0-3.9s-2.8-1.1-3.9,0l-19,19c-0.1,0.1-0.2,0.3-0.4,0.4
			c0,0,0,0,0,0c-0.1,0.1-0.2,0.3-0.2,0.4c0,0,0,0,0,0.1c-0.1,0.1-0.1,0.3-0.1,0.5c0,0,0,0.1,0,0.1c-0.1,0.3-0.1,0.6,0,0.9
			c0,0,0,0.1,0,0.1c0,0.2,0.1,0.3,0.1,0.5c0,0,0,0,0,0.1c0.1,0.2,0.1,0.3,0.2,0.4c0,0,0,0,0,0c0.1,0.2,0.2,0.3,0.4,0.4l19,19
			c1.1,1.1,2.8,1.1,3.9,0s1.1-2.8,0-3.9L-5.4-56.5h29.9c1.5,0,2.8-1.2,2.8-2.8C27.3-60.8,26.1-62.1,24.6-62L24.6-62z"/>
		<path id="Pfad_642" class="st0" d="M178-57.7c0-0.1,0.1-0.1,0.1-0.2c0.1-0.1,0.1-0.2,0.2-0.3c0-0.1,0-0.1,0.1-0.2
			c0.1-0.2,0.1-0.4,0.1-0.7c0-0.1,0-0.1,0-0.2s0-0.1,0-0.2c0-0.1,0-0.3,0-0.4c0-0.1-0.1-0.2-0.1-0.3c0-0.1,0-0.2-0.1-0.2
			c0-0.1-0.1-0.2-0.2-0.3c0-0.1-0.1-0.1-0.1-0.2c-0.1-0.2-0.2-0.3-0.4-0.4l-19-19c-1.1-1.1-2.8-1.1-3.9,0c-1.1,1.1-1.1,2.8,0,3.9
			L169-62h-29.9c-1.5,0-2.8,1.2-2.8,2.8c0,1.5,1.2,2.8,2.8,2.8H169l-14.2,14.2c-1.1,1.1-1.1,2.8,0,3.9c1.1,1.1,2.8,1.1,3.9,0
			c0,0,0,0,0,0l19-19C177.8-57.4,177.9-57.6,178-57.7z"/>
	</g>
	<path id="Pfad_643" class="st0" d="M221.8,78.9c8.1-34.2-13.1-68.6-47.3-76.7c-29.4-7-59.6,7.6-72.4,34.9
		c-22.9-14.6-53.4-7.9-68,15c-5.1,7.9-7.7,17.1-7.7,26.5c0,0.2,0,0.3,0,0.5c-17.4,3-29,19.6-26,36.9c2.7,15.3,15.9,26.4,31.4,26.4
		h186.2c17.6,0,31.9-14.3,31.9-31.9C250,94.5,237.9,80.8,221.8,78.9L221.8,78.9z M89.8,85.2V66c0-0.9,0.7-1.7,1.7-1.7
		c0.4,0,0.9,0.2,1.2,0.5l6.2,6.2c8.8-14.4,27.6-19.1,42-10.3c5.6,3.4,10,8.5,12.5,14.6c0.3,0.8-0.1,1.8-0.9,2.2
		c-0.2,0.1-0.4,0.1-0.6,0.1h-4c-0.6,0-1.2-0.4-1.5-0.9c-5.6-11.8-19.7-16.8-31.5-11.1c-4.7,2.2-8.5,6-10.9,10.6l7.9,7.9
		c0.6,0.6,0.6,1.7,0,2.3c-0.3,0.3-0.7,0.5-1.2,0.5H91.5C90.6,86.9,89.8,86.2,89.8,85.2L89.8,85.2z M160.2,107.8
		c0,0.9-0.7,1.7-1.7,1.7c-0.4,0-0.9-0.2-1.2-0.5l-6.2-6.2c-8.8,14.4-27.6,19.1-42,10.3c-5.6-3.4-10-8.5-12.5-14.6
		c-0.3-0.8,0.1-1.8,0.9-2.2c0.2-0.1,0.4-0.1,0.6-0.1h4c0.6,0,1.2,0.4,1.5,0.9c5.6,11.8,19.7,16.8,31.5,11.1c4.7-2.2,8.5-6,10.9-10.6
		l-7.9-7.9c-0.6-0.6-0.6-1.7,0-2.3c0.3-0.3,0.7-0.5,1.2-0.5h19.2c0.9,0,1.7,0.7,1.7,1.7L160.2,107.8z"/>
</g>
</svg>
