<?xml version="1.0" encoding="utf-8"?>
<!-- Generator: Adobe Illustrator 24.3.0, SVG Export Plug-In . SVG Version: 6.00 Build 0)  -->
<svg version="1.1" id="Ebene_1" xmlns="http://www.w3.org/2000/svg" xmlns:xlink="http://www.w3.org/1999/xlink" x="0px" y="0px"
	 viewBox="0 0 250 250" style="enable-background:new 0 0 250 250;" xml:space="preserve">
<style type="text/css">
	.st0{fill:#FFFFFF;}
	.st1{fill:#2A6DB1;}
</style>
<g id="Gruppe_578" transform="translate(-169.831 -6935.319)">
	<path id="Pfad_625" class="st0" d="M245.4,7099.5l-6.5,12.5l14.1,14.1l12.5-6.5c4.7,2.8,9.8,4.9,15.2,6.3l4.2,13.5h19.9l4.2-13.5
		c5.3-1.4,10.4-3.5,15.2-6.3l12.5,6.5l14.1-14.1l-6.5-12.5c2.8-4.7,4.9-9.8,6.3-15.2l13.5-4.2v-19.9l-13.5-4.2
		c-1.4-5.3-3.5-10.4-6.3-15.2l6.5-12.5l-14.1-14.1l-12.5,6.5c-4.7-2.8-9.8-4.9-15.2-6.3l-4.2-13.5h-19.9l-4.2,13.5
		c-5.3,1.4-10.4,3.5-15.2,6.3l-12.5-6.5l-14.1,14.1l6.5,12.5c-2.8,4.7-4.9,9.8-6.3,15.2l-13.5,4.2v19.9l13.5,4.2
		C240.5,7089.7,242.6,7094.8,245.4,7099.5z M294.8,7038.5c17.5,0,31.7,14.2,31.7,31.7s-14.2,31.7-31.7,31.7
		c-17.5,0-31.7-14.2-31.7-31.7C263.1,7052.7,277.3,7038.5,294.8,7038.5C294.8,7038.5,294.8,7038.5,294.8,7038.5L294.8,7038.5z"/>
	<path id="Pfad_626" class="st1" d="M363.4,6966.7v13.9c46.8,37.8,54,106.4,16.2,153.2c-37.8,46.8-106.4,54-153.2,16.2
		c-46.8-37.8-54-106.4-16.2-153.2c4.8-5.9,10.2-11.4,16.2-16.2v-13.9c-54.4,37.8-67.9,112.6-30,167.1c37.8,54.4,112.6,67.9,167.1,30
		c54.4-37.8,67.9-112.6,30-167.1C385.2,6985,375.1,6974.9,363.4,6966.7z"/>
	<path id="Pfad_627" class="st0" d="M365.6,6935.3H224c-2.8,0-5,2.3-5,5c0,0,0,0,0,0v43.7c0,2.8,2.3,5,5,5c0,0,0,0,0,0h141.6
		c2.8,0,5-2.3,5-5c0,0,0,0,0,0v-43.7C370.7,6937.6,368.4,6935.3,365.6,6935.3C365.6,6935.3,365.6,6935.3,365.6,6935.3z
		 M274.4,6978.2h-6.6l-12.8-21v21h-6.6v-32h6.6l12.8,21.1v-21.1h6.6V6978.2z M301.6,6978.2h-21.4v-32h21.4v5.3h-14.8v7.6h12.6v5.2
		h-12.6v8.6h14.8L301.6,6978.2z M334.1,6978.2h-6.6l-5.2-21.4l-5.2,21.4h-6.6l-7.1-32h6.6l4.3,22.7l5.3-22.7h5.6l5.2,22.7l4.3-22.7
		h6.6L334.1,6978.2z"/>
	<path id="Pfad_628" class="st0" d="M294.8,7050.7l5.9,11.9l13.1,1.9l-9.5,9.3l2.2,13.1l-11.7-6.2l-11.7,6.2l2.2-13.1l-9.5-9.3
		l13.1-1.9L294.8,7050.7z"/>
</g>
</svg>
