<?xml version="1.0" encoding="utf-8"?>
<!-- Generator: Adobe Illustrator 24.3.0, SVG Export Plug-In . SVG Version: 6.00 Build 0)  -->
<svg version="1.1" id="Ebene_1" xmlns="http://www.w3.org/2000/svg" xmlns:xlink="http://www.w3.org/1999/xlink" x="0px" y="0px"
	 viewBox="0 0 250 250" style="enable-background:new 0 0 250 250;" xml:space="preserve">
<style type="text/css">
	.st0{fill:#2A6DB1;}
	.st1{fill:#FFFFFF;}
</style>
<g id="Gruppe_495" transform="translate(-1680 -884)">
	<g id="Gruppe_494" transform="translate(3208.643 -6820.431)">
		<g id="Gruppe_408">
			<path id="Pfad_307" class="st0" d="M-1403.6,7936.5c-59.1-0.1-107-48-107.1-107.1c0.1-59.1,48-107,107.1-107.1
				c59.1,0.1,107,48,107.1,107.1C-1296.6,7888.6-1344.5,7936.5-1403.6,7936.5z M-1403.6,7732.2c-53.7,0.1-97.2,43.5-97.2,97.2
				c0.1,53.7,43.5,97.2,97.2,97.2c53.7-0.1,97.1-43.6,97.2-97.2C-1306.5,7775.8-1350,7732.3-1403.6,7732.2z"/>
		</g>
		<g id="Gruppe_493">
			<rect id="Rechteck_117" x="-1452.2" y="7820.9" class="st1" width="96.7" height="22.9"/>
			<path id="Pfad_478" class="st1" d="M-1518.5,7777.8c5,0,9.3-3.7,10-8.6h30.9l25.4,25.4v20.6h96.7v-20.3l25.7-25.7h30.9
				c0.8,4.9,5,8.6,10,8.6c5.6,0,10.2-4.6,10.2-10.2c0-5.6-4.5-10.2-10.2-10.2c-5,0-9.3,3.7-10,8.6h-31.6c-0.4,0-0.8,0.2-1.1,0.5
				l-25.7,25.7h-92.9l-25.7-25.7c-0.3-0.3-0.7-0.5-1.1-0.5h-31.6c-0.8-4.9-5-8.6-10-8.6c-5.6,0-10.2,4.5-10.2,10.2
				C-1528.6,7773.3-1524.1,7777.8-1518.5,7777.8z M-1288.8,7760.6c3.9,0,7,3.2,7.1,7.1c0,3.9-3.2,7-7.1,7.1c-3.9,0-7-3.2-7.1-7.1
				C-1295.8,7763.8-1292.7,7760.6-1288.8,7760.6z M-1518.5,7760.6c3.9,0,7,3.2,7.1,7.1c0,3.9-3.2,7-7.1,7.1c-3.9,0-7-3.2-7-7.1
				C-1525.5,7763.8-1522.4,7760.6-1518.5,7760.6z"/>
			<path id="Pfad_479" class="st1" d="M-1288.8,7887c-5,0-9.3,3.7-10,8.6h-30.9l-25.7-25.7v-20.3h-96.7v20.6l-25.4,25.4h-30.9
				c-0.8-4.9-5-8.6-10-8.6c-5.6,0-10.2,4.5-10.2,10.2c0,5.6,4.5,10.2,10.2,10.2c5,0,9.3-3.7,10-8.6h31.6c0.4,0,0.8-0.2,1.1-0.5
				l25.7-25.7h92.9l25.7,25.7c0.3,0.3,0.7,0.5,1.1,0.5h31.6c0.8,4.9,5,8.6,10,8.6c5.6,0,10.2-4.5,10.2-10.2
				C-1278.6,7891.5-1283.2,7887-1288.8,7887z M-1518.5,7904.2c-3.9,0-7-3.2-7-7c0-3.9,3.2-7,7-7.1c3.9,0,7,3.2,7.1,7.1
				C-1511.4,7901-1514.6,7904.2-1518.5,7904.2L-1518.5,7904.2z M-1288.8,7904.2c-3.9,0-7-3.2-7.1-7c0-3.9,3.2-7,7.1-7.1
				c3.9,0,7,3.2,7.1,7.1C-1281.8,7901-1284.9,7904.2-1288.8,7904.2L-1288.8,7904.2z"/>
			<path id="Pfad_480" class="st1" d="M-1431.2,7777.1h11.6l2.2,6.6h7.1l-12-32.2h-6.1l-12,32.2h7.1L-1431.2,7777.1z
				 M-1425.4,7759.7l4,12h-8L-1425.4,7759.7z"/>
			<path id="Pfad_481" class="st1" d="M-1400.7,7772.4h5.8c3.8,0,6.8-0.9,9-2.7c2.2-1.9,3.4-4.6,3.2-7.5c0-2-0.5-3.9-1.5-5.6
				c-1-1.6-2.5-3-4.2-3.8c-2-0.9-4.2-1.4-6.4-1.3h-12.5v32.2h6.6L-1400.7,7772.4z M-1400.7,7756.9h6.1c1.4-0.1,2.8,0.5,3.8,1.5
				c1,1,1.5,2.4,1.4,3.8c0.1,1.3-0.4,2.6-1.4,3.5c-1.1,0.9-2.6,1.3-4,1.2h-5.9L-1400.7,7756.9z"/>
			<rect id="Rechteck_118" x="-1377.7" y="7751.6" class="st1" width="6.6" height="32.2"/>
		</g>
	</g>
</g>
</svg>
