<?xml version="1.0" encoding="utf-8"?>
<!-- Generator: Adobe Illustrator 24.3.0, SVG Export Plug-In . SVG Version: 6.00 Build 0)  -->
<svg version="1.1" id="Ebene_1" xmlns="http://www.w3.org/2000/svg" xmlns:xlink="http://www.w3.org/1999/xlink" x="0px" y="0px"
	 viewBox="0 0 250 250" style="enable-background:new 0 0 250 250;" xml:space="preserve">
<style type="text/css">
	.st0{fill:#2A6DB1;}
	.st1{fill:#FFFFFF;}
</style>
<g id="Gruppe_558" transform="translate(-391.846 -6943.025)">
	<g id="Gruppe_408">
		<path id="Pfad_307" class="st0" d="M506.7,7175.1c-59.2,0-107.1-48-107.1-107.1c0-59.2,48-107.1,107.1-107.1
			c59.2,0,107.1,48,107.1,107.1C613.8,7127.2,565.8,7175.1,506.7,7175.1z M506.7,6970.8c-53.7,0-97.2,43.5-97.2,97.2
			s43.5,97.2,97.2,97.2c53.7,0,97.2-43.5,97.2-97.2C603.9,7014.3,560.4,6970.9,506.7,6970.8L506.7,6970.8z"/>
	</g>
	<g id="Gruppe_557">
		<path id="Pfad_594" class="st1" d="M544.9,7058.9c-6,0-11.8,1.6-16.9,4.7l-3.2-5.6c15.1-10.1,19.1-30.6,8.9-45.7
			s-30.6-19.1-45.7-8.9c-2,1.3-3.8,2.9-5.4,4.6l-17-17c-0.3-0.3-0.8-0.5-1.2-0.5h-26.6c-0.9-5.9-6.5-10-12.5-9.1
			c-5.9,0.9-10,6.5-9.1,12.5c0.9,5.9,6.5,10,12.5,9.1c4.7-0.7,8.3-4.4,9.1-9.1h25.9l16.6,16.6c-11.1,14.4-8.5,35,5.9,46.2
			c0.6,0.4,1.2,0.9,1.8,1.3l-3.2,5.6c-15.6-9.3-35.8-4.3-45.1,11.3c-8.7,14.5-5,33.3,8.7,43.4l-8.8,8.8h-25.9
			c-0.9-5.9-6.5-10-12.5-9.1c-5.9,0.9-10,6.5-9.1,12.5s6.5,10,12.5,9.1c4.7-0.7,8.3-4.4,9.1-9.1h26.6c0.5,0,0.9-0.2,1.2-0.5l9.8-9.8
			c15.7,9.2,35.8,3.9,45-11.8c0.9-1.6,1.7-3.2,2.4-4.9h15.6c6.5,17,25.5,25.5,42.5,19.1c17-6.5,25.5-25.5,19.1-42.5
			C570.8,7067.4,558.5,7058.9,544.9,7058.9L544.9,7058.9z M427,6999.7c-4.1,0-7.5-3.3-7.5-7.5c0-4.1,3.3-7.5,7.5-7.5
			c4.1,0,7.5,3.3,7.5,7.5l0,0C434.5,6996.3,431.1,6999.7,427,6999.7z M402.8,7136.3c-4.1,0-7.5-3.3-7.5-7.5c0-4.1,3.3-7.5,7.5-7.5
			s7.5,3.3,7.5,7.5l0,0C410.2,7132.9,406.9,7136.3,402.8,7136.3z M467.8,7117.9c-14.4,0-26.1-11.7-26.1-26.1s11.7-26.1,26.1-26.1
			c14.4,0,26.1,11.7,26.1,26.1C493.8,7106.2,482.1,7117.9,467.8,7117.9L467.8,7117.9z M499.9,7099c2.7-12.2-1.7-24.9-11.5-32.7
			l3.4-6c9.1,4.4,19.8,4.4,28.9,0l3.4,6c-9.7,7.8-14.2,20.5-11.5,32.7H499.9z"/>
		<path id="Pfad_595" class="st1" d="M637.1,7049.5c0.4,0.5,1.1,0.5,1.6,0.1c0.5-0.4,0.5-1.1,0.1-1.6c-0.5-0.6-1.1-1.2-1.8-1.7
			c-0.5-0.4-1.2-0.3-1.6,0.1c-0.4,0.5-0.3,1.2,0.1,1.6c0,0,0,0,0,0C636.2,7048.5,636.7,7049,637.1,7049.5z"/>
		<path id="Pfad_596" class="st1" d="M617.2,7058c0.6,0,1.1-0.6,1.1-1.2c0-0.1,0-0.3,0-0.4c0-0.5,0-1.1,0.1-1.6l0-0.1l-2.3-0.3
			c-0.1,0.7-0.1,1.3-0.1,2c0,0.2,0,0.3,0,0.5C616,7057.5,616.5,7058,617.2,7058L617.2,7058z"/>
		<path id="Pfad_597" class="st1" d="M619.2,7060.8c-0.3-0.6-0.9-0.8-1.5-0.6c-0.6,0.3-0.8,0.9-0.6,1.5c0,0,0,0,0,0
			c0.3,0.8,0.7,1.5,1.2,2.1c0.4,0.5,1.1,0.6,1.6,0.3c0.5-0.4,0.6-1.1,0.3-1.6l0,0C619.8,7062,619.5,7061.4,619.2,7060.8z"/>
		<path id="Pfad_598" class="st1" d="M624.9,7066.3c-0.6-0.3-1.2-0.6-1.8-0.9c-0.5-0.3-1.2-0.2-1.6,0.3s-0.2,1.2,0.3,1.6
			c0.7,0.5,1.4,0.8,2.2,1.2c0.6,0.2,1.3,0,1.5-0.6C625.8,7067.2,625.5,7066.5,624.9,7066.3L624.9,7066.3z"/>
		<path id="Pfad_599" class="st1" d="M636.3,7064.2c-0.5,0.5-1,0.9-1.6,1.2c-0.5,0.3-0.7,1-0.4,1.6c0.2,0.3,0.6,0.5,1,0.5
			c0.2,0,0.4-0.1,0.6-0.2c0.7-0.4,1.4-0.9,2-1.5c0.5-0.4,0.5-1.1,0.1-1.6C637.5,7063.8,636.8,7063.8,636.3,7064.2
			C636.3,7064.2,636.3,7064.2,636.3,7064.2L636.3,7064.2z"/>
		<path id="Pfad_600" class="st1" d="M641.3,7052.3c-0.2-0.6-0.8-0.9-1.4-0.7c-0.6,0.2-0.9,0.8-0.7,1.4l0,0c0.2,0.6,0.4,1.3,0.5,2
			c0.1,0.6,0.6,1,1.1,1c0.1,0,0.1,0,0.2,0c0.6-0.1,1.1-0.7,1-1.3C641.7,7053.9,641.5,7053.1,641.3,7052.3z"/>
		<path id="Pfad_601" class="st1" d="M632.8,7044c-0.6-0.2-1.2-0.3-1.8-0.4c-0.2,0-0.4-0.1-0.6-0.1c-0.6-0.1-1.2,0.4-1.3,1
			c-0.1,0.6,0.4,1.2,1,1.3c0.2,0,0.3,0,0.5,0.1c0.5,0.1,1,0.2,1.5,0.3c0.1,0,0.2,0,0.3,0c0.6,0,1.1-0.5,1.1-1.1
			C633.6,7044.6,633.2,7044.1,632.8,7044L632.8,7044z"/>
		<path id="Pfad_602" class="st1" d="M625.5,7043.9c-0.8,0.2-1.6,0.5-2.3,0.9c-0.6,0.3-0.8,1-0.5,1.5c0.3,0.6,1,0.8,1.5,0.5
			c0,0,0,0,0,0c0.6-0.3,1.2-0.5,1.9-0.7c0.6-0.2,1-0.8,0.8-1.4C626.7,7044.1,626.1,7043.7,625.5,7043.9L625.5,7043.9z"/>
		<path id="Pfad_603" class="st1" d="M619.3,7047.8c-0.5,0.6-1,1.3-1.5,2c-0.3,0.5-0.1,1.2,0.4,1.6c0.5,0.3,1.2,0.1,1.6-0.4
			c0.3-0.6,0.7-1.1,1.2-1.6c0.4-0.5,0.4-1.2-0.1-1.6C620.4,7047.3,619.7,7047.3,619.3,7047.8L619.3,7047.8z"/>
		<path id="Pfad_604" class="st1" d="M630.9,7066.9c-0.6,0.1-1.2,0.2-1.9,0.2h-0.2c-0.6,0-1.1,0.5-1.1,1.1c0,0,0,0,0,0
			c0,0.6,0.6,1.1,1.2,1.1c0.8,0,1.6-0.1,2.3-0.2c0.6-0.1,1.1-0.7,1-1.3C632.2,7067.3,631.6,7066.8,630.9,7066.9
			C630.9,7066.9,630.9,7066.9,630.9,7066.9L630.9,7066.9z"/>
		<path id="Pfad_605" class="st1" d="M640.7,7058.2c-0.6-0.1-1.2,0.2-1.4,0.8c-0.2,0.7-0.4,1.3-0.7,1.9c-0.3,0.6,0,1.3,0.6,1.5
			c0.6,0.3,1.3,0,1.5-0.6c0.3-0.7,0.6-1.5,0.8-2.3C641.7,7059,641.3,7058.4,640.7,7058.2C640.7,7058.2,640.7,7058.2,640.7,7058.2z"
			/>
		<path id="Pfad_606" class="st1" d="M612,7055.3h-1.1c-0.6,0-1.1,0.5-1.1,1.1c0,0.6,0.5,1.1,1.1,1.1h1.1c0.6,0,1.1-0.5,1.1-1.1
			C613.2,7055.8,612.7,7055.3,612,7055.3z"/>
		<path id="Pfad_607" class="st1" d="M598.1,7055.3h-2.6c-0.6,0-1.1,0.5-1.1,1.1c0,0.6,0.5,1.1,1.1,1.1h2.6c0.6,0,1.1-0.5,1.1-1.1
			C599.2,7055.8,598.7,7055.3,598.1,7055.3z"/>
		<path id="Pfad_608" class="st1" d="M590.4,7055.3h-2.6c-0.6,0-1.1,0.5-1.1,1.1c0,0.6,0.5,1.1,1.1,1.1h2.6c0.6,0,1.1-0.5,1.1-1.1
			C591.6,7055.8,591.1,7055.3,590.4,7055.3z"/>
		<path id="Pfad_609" class="st1" d="M605.8,7055.3h-2.6c-0.6,0-1.1,0.5-1.1,1.1c0,0.6,0.5,1.1,1.1,1.1h2.6c0.6,0,1.1-0.5,1.1-1.1
			C606.9,7055.8,606.4,7055.3,605.8,7055.3z"/>
		<path id="Pfad_610" class="st1" d="M582.7,7055.3h-1.1c-0.3,0-0.6,0.1-0.8,0.3l-0.8,0.8c-0.4,0.4-0.4,1.2,0,1.6
			c0.4,0.4,1.2,0.4,1.6,0l0.5-0.5h0.7c0.6,0,1.1-0.5,1.1-1.1C583.9,7055.8,583.4,7055.3,582.7,7055.3z"/>
		<path id="Pfad_611" class="st1" d="M570.3,7068.9c0.3,0,0.6-0.1,0.8-0.3l1.8-1.8c0.4-0.5,0.4-1.2,0-1.6c-0.4-0.4-1.1-0.4-1.6,0
			l-1.8,1.8c-0.4,0.4-0.4,1.2,0,1.6C569.7,7068.8,570,7068.9,570.3,7068.9L570.3,7068.9z"/>
		<path id="Pfad_612" class="st1" d="M576.5,7059.9l-1.8,1.8c-0.5,0.4-0.5,1.2,0,1.6s1.2,0.5,1.6,0c0,0,0,0,0,0l1.8-1.8
			c0.5-0.4,0.5-1.2,0-1.6C577.7,7059.5,577,7059.5,576.5,7059.9C576.5,7059.9,576.5,7059.9,576.5,7059.9z"/>
	</g>
</g>
</svg>
