<?xml version="1.0" encoding="utf-8"?>
<!-- Generator: Adobe Illustrator 24.3.0, SVG Export Plug-In . SVG Version: 6.00 Build 0)  -->
<svg version="1.1" id="Ebene_1" xmlns="http://www.w3.org/2000/svg" xmlns:xlink="http://www.w3.org/1999/xlink" x="0px" y="0px"
	 viewBox="0 0 250 250" style="enable-background:new 0 0 250 250;" xml:space="preserve">
<style type="text/css">
	.st0{fill:#2A6DB1;}
	.st1{fill:#FFFFFF;}
</style>
<g id="Gruppe_498" transform="translate(-1148 -708)">
	<g id="Gruppe_497" transform="translate(2470.125 -7221.952)">
		<path id="Pfad_482" class="st0" d="M-1130.6,7982c-1.6,3-3.7,5.8-6.3,8c25,18.9,39.7,48.4,39.7,79.8c-0.1,55.2-44.8,100-100,100
			c-55.2-0.1-100-44.8-100-100c0.1-55.2,44.8-100,100-100c5.2,0,10.5,0.4,15.7,1.2c0-0.4,0-0.8,0-1.2c0-3,0.5-6,1.5-8.8
			c-5.7-0.9-11.4-1.3-17.1-1.3c-60.8,0.1-110.1,49.4-110.2,110.2c0.1,60.8,49.4,110.1,110.2,110.2c60.8-0.1,110.1-49.4,110.2-110.2
			C-1086.9,8035.3-1103.1,8002.8-1130.6,7982z"/>
		<g id="Gruppe_496">
			<path id="Pfad_483" class="st1" d="M-1193.2,8088l3.7-7l-7.9-7.9l-7,3.7c-2.7-1.6-5.5-2.8-8.5-3.5l-2.4-7.6h-11.2l-2.4,7.6
				c-3,0.8-5.9,2-8.5,3.5l-7-3.7l-7.9,7.9l3.7,7c-1.6,2.7-2.8,5.5-3.5,8.5l-7.6,2.4v11.2l7.6,2.4c0.8,3,2,5.9,3.5,8.5l-3.7,7
				l7.9,7.9l7-3.7c2.7,1.6,5.5,2.8,8.5,3.5l2.4,7.6h11.2l2.4-7.6c3-0.8,5.9-2,8.5-3.5l7,3.7l7.9-7.9l-3.7-7c1.6-2.7,2.8-5.5,3.5-8.5
				l7.6-2.4v-11.2l-7.6-2.4C-1190.5,8093.5-1191.7,8090.7-1193.2,8088z M-1221,8122.4c-9.9,0-17.8-8-17.8-17.8
				c0-9.9,8-17.8,17.8-17.8c0,0,0,0,0,0c9.9,0,17.8,8,17.8,17.8l0,0C-1203.2,8114.4-1211.2,8122.4-1221,8122.4
				C-1221,8122.4-1221,8122.4-1221,8122.4L-1221,8122.4z"/>
			<path id="Pfad_484" class="st1" d="M-1161.2,8049.7c0.1,0,0.2,0,0.3-0.1c0.9-0.4,1.9-0.6,2.8-0.8c0.4-0.1,0.7-0.5,0.6-0.9
				c-0.1-0.4-0.5-0.7-0.9-0.6c-1.1,0.2-2.1,0.5-3.1,0.9c-0.4,0.2-0.6,0.6-0.4,1C-1161.8,8049.5-1161.5,8049.7-1161.2,8049.7z"/>
			<path id="Pfad_485" class="st1" d="M-1170.3,8057.7c0.3,0,0.5-0.2,0.7-0.4c0.5-0.9,1-1.7,1.7-2.4c0.3-0.3,0.2-0.8-0.1-1.1
				c-0.3-0.3-0.8-0.2-1.1,0.1c-0.7,0.8-1.3,1.7-1.8,2.7c-0.2,0.4-0.1,0.8,0.3,1.1c0,0,0,0,0,0
				C-1170.6,8057.7-1170.5,8057.7-1170.3,8057.7z"/>
			<path id="Pfad_486" class="st1" d="M-1171.3,8038.6c0.1,0,0.3,0,0.4-0.1c0.6-0.4,1.2-0.7,1.8-1c0.4-0.2,0.5-0.7,0.3-1
				c0,0,0,0,0,0c-0.2-0.4-0.6-0.5-1-0.3c0,0,0,0,0,0c-0.5,0.3-1,0.5-1.5,0.8l-0.5-0.2c-0.4-0.2-0.8-0.1-1,0.3c0,0,0,0,0,0
				c-0.2,0.4-0.1,0.8,0.3,1l0.8,0.4C-1171.5,8038.6-1171.4,8038.6-1171.3,8038.6z"/>
			<path id="Pfad_487" class="st1" d="M-1161.4,8032.5l0.9-3c0.1-0.4-0.1-0.8-0.5-1c-0.4-0.1-0.8,0.1-1,0.5l-0.9,3
				c-0.1,0.4,0.1,0.8,0.5,1c0.1,0,0.2,0,0.2,0C-1161.8,8033-1161.5,8032.8-1161.4,8032.5z"/>
			<path id="Pfad_488" class="st1" d="M-1171.4,8059c-0.4-0.1-0.8,0.1-1,0.5c-0.4,1-0.6,2.1-0.8,3.1c-0.1,0.4,0.2,0.8,0.6,0.9h0
				c0,0,0.1,0,0.1,0c0.4,0,0.7-0.3,0.8-0.6c0.2-1,0.4-1.9,0.7-2.9C-1170.7,8059.6-1171,8059.1-1171.4,8059z"/>
			<path id="Pfad_489" class="st1" d="M-1156.1,8026.7c0-0.4-0.3-0.8-0.8-0.8h-3.1c-0.4,0-0.8,0.3-0.8,0.8c0,0.4,0.3,0.8,0.8,0.8
				h3.1C-1156.5,8027.5-1156.1,8027.1-1156.1,8026.7L-1156.1,8026.7z"/>
			<path id="Pfad_490" class="st1" d="M-1172.6,8065L-1172.6,8065c-0.4,0-0.8,0.4-0.8,0.8c0,0,0,0,0,0c0,1.1,0.1,2.2,0.3,3.2
				c0.1,0.4,0.4,0.6,0.8,0.6c0,0,0.1,0,0.1,0c0.4-0.1,0.7-0.5,0.6-0.9c-0.2-1-0.3-2-0.3-2.9C-1171.8,8065.4-1172.2,8065-1172.6,8065
				z"/>
			<path id="Pfad_491" class="st1" d="M-1166.7,8079.9c0.1,0.1,0.3,0.2,0.5,0.2c0.2,0,0.4-0.1,0.6-0.3c0.3-0.3,0.2-0.8-0.1-1.1
				c0,0,0,0,0,0c-0.8-0.6-1.5-1.3-2.1-2.1c-0.3-0.3-0.8-0.4-1.1-0.1c-0.3,0.3-0.4,0.8-0.1,1.1
				C-1168.3,8078.5-1167.5,8079.2-1166.7,8079.9z"/>
			<path id="Pfad_492" class="st1" d="M-1190,8058.8c-0.1-0.4-0.6-0.6-1-0.5l-3,0.9c-0.4,0.1-0.6,0.6-0.5,1c0.1,0.3,0.4,0.5,0.7,0.5
				c0.1,0,0.2,0,0.2,0l3-0.9C-1190.1,8059.7-1189.8,8059.2-1190,8058.8z"/>
			<path id="Pfad_493" class="st1" d="M-1193.7,8066.9c0.4,0,0.8-0.3,0.8-0.8v-3.1c0-0.4-0.3-0.8-0.8-0.8c-0.4,0-0.8,0.3-0.8,0.8
				l0,0v3.1C-1194.5,8066.6-1194.1,8066.9-1193.7,8066.9z"/>
			<path id="Pfad_494" class="st1" d="M-1189.9,8073.2l3,0.9c0.1,0,0.2,0,0.2,0c0.3,0,0.6-0.2,0.7-0.5c0.1-0.4-0.1-0.8-0.5-1
				c0,0,0,0,0,0l-3-0.9c-0.4-0.1-0.8,0.1-1,0.5C-1190.5,8072.7-1190.3,8073.1-1189.9,8073.2z"/>
			<path id="Pfad_495" class="st1" d="M-1162.9,8034.3c-0.1-0.4-0.5-0.6-0.9-0.5c0,0,0,0,0,0c-1,0.3-2,0.6-3,1
				c-0.4,0.2-0.6,0.6-0.4,1c0.1,0.3,0.4,0.5,0.7,0.5c0.1,0,0.2,0,0.3-0.1c1-0.4,1.9-0.7,2.9-1
				C-1163,8035.1-1162.8,8034.7-1162.9,8034.3C-1162.9,8034.3-1162.9,8034.3-1162.9,8034.3z"/>
			<path id="Pfad_496" class="st1" d="M-1163.3,8049.9c-0.2-0.4-0.7-0.5-1.1-0.3c-0.9,0.6-1.8,1.2-2.6,1.9c-0.3,0.3-0.4,0.8-0.1,1.1
				c0.1,0.2,0.4,0.3,0.6,0.3c0.2,0,0.4-0.1,0.5-0.2c0.7-0.6,1.5-1.2,2.4-1.7C-1163.2,8050.8-1163.1,8050.3-1163.3,8049.9z"/>
			<path id="Pfad_497" class="st1" d="M-1194.5,8071.2c0,0.3,0.2,0.6,0.5,0.7l1.1,0.3c0.1,0,0.2,0,0.2,0c0.3,0,0.6-0.2,0.7-0.5
				c0.1-0.4-0.1-0.8-0.5-1c0,0,0,0,0,0l-0.5-0.2v-1.4c0-0.4-0.3-0.8-0.8-0.8c-0.4,0-0.8,0.3-0.8,0.8L-1194.5,8071.2z"/>
			<path id="Pfad_498" class="st1" d="M-1184.8,8086.4c-0.4-0.2-0.8,0-1,0.3l-1.1,2.1c-0.2,0.3-0.1,0.7,0.1,0.9l0.5,0.5
				c0.1,0.1,0.3,0.2,0.5,0.2c0.2,0,0.4-0.1,0.5-0.2c0.3-0.3,0.3-0.8,0-1.1l-0.1-0.1l0.8-1.6
				C-1184.3,8087-1184.4,8086.6-1184.8,8086.4z"/>
			<path id="Pfad_499" class="st1" d="M-1144,8035.9c0.3,0,0.6-0.2,0.7-0.5c0.1-0.4-0.1-0.8-0.5-1c-0.8-0.3-1.7-0.5-2.5-0.8
				c-0.2-0.2-0.5-0.3-0.8-0.2c-0.4,0.2-0.6,0.6-0.5,1.1c0.1,0.3,0.3,0.5,0.5,0.5c0.9,0.2,1.8,0.5,2.7,0.8
				C-1144.2,8035.9-1144.1,8035.9-1144,8035.9z"/>
			<path id="Pfad_500" class="st1" d="M-1122.1,8058c0.1-0.4-0.1-0.8-0.5-1l-0.1,0c-0.2-0.7-0.4-1.4-0.6-2c-0.1-0.4-0.6-0.6-1-0.5
				c-0.4,0.1-0.6,0.6-0.5,1c0,0,0,0,0,0c0.3,0.8,0.5,1.6,0.7,2.4c0.1,0.3,0.3,0.5,0.5,0.5l0.6,0.2c0.1,0,0.2,0,0.2,0
				C-1122.5,8058.6-1122.2,8058.4-1122.1,8058z"/>
			<path id="Pfad_501" class="st1" d="M-1127.4,8050c0.5,0.9,1,1.8,1.4,2.7c0.1,0.3,0.4,0.5,0.7,0.5c0.1,0,0.2,0,0.3-0.1
				c0.4-0.2,0.6-0.6,0.4-1c0,0,0,0,0,0c-0.4-1-0.9-1.9-1.4-2.8c-0.2-0.4-0.7-0.5-1.1-0.3c0,0,0,0,0,0
				C-1127.4,8049.1-1127.6,8049.6-1127.4,8050z"/>
			<path id="Pfad_502" class="st1" d="M-1124.8,8078.6c0.3,0,0.6-0.2,0.7-0.5c0.4-1,0.8-2,1.1-3c0.1-0.4-0.1-0.8-0.5-1c0,0,0,0,0,0
				c-0.4-0.1-0.8,0.1-1,0.5c0,0,0,0,0,0c-0.3,1-0.6,1.9-1,2.8c-0.2,0.4,0,0.8,0.4,1C-1125,8078.6-1124.9,8078.6-1124.8,8078.6z"/>
			<path id="Pfad_503" class="st1" d="M-1149.3,8049.4c0.9,0.3,1.8,0.7,2.7,1.2c0.1,0.1,0.2,0.1,0.4,0.1c0.3,0,0.5-0.2,0.7-0.4
				c0.2-0.4,0.1-0.8-0.3-1.1c0,0,0,0,0,0c-0.9-0.5-1.9-0.9-2.9-1.3c-0.4-0.1-0.8,0.1-1,0.5
				C-1149.9,8048.9-1149.7,8049.3-1149.3,8049.4C-1149.3,8049.4-1149.3,8049.4-1149.3,8049.4z"/>
			<path id="Pfad_504" class="st1" d="M-1147.8,8031.9c0.1,0,0.2,0,0.2,0c0.4-0.1,0.6-0.6,0.5-1c0,0,0,0,0,0l-0.9-3
				c-0.1-0.4-0.6-0.6-1-0.5c0,0,0,0,0,0c-0.4,0.1-0.6,0.6-0.5,1c0,0,0,0,0,0l0.9,3C-1148.4,8031.7-1148.1,8031.9-1147.8,8031.9z"/>
			<path id="Pfad_505" class="st1" d="M-1125.1,8043.8l-1.4,2.7c-0.2,0.4-0.1,0.8,0.3,1c0,0,0,0,0,0c0.1,0.1,0.2,0.1,0.4,0.1
				c0.3,0,0.6-0.2,0.7-0.4l1.4-2.7c0.2-0.4,0.1-0.8-0.3-1C-1124.4,8043.2-1124.9,8043.4-1125.1,8043.8z"/>
			<path id="Pfad_506" class="st1" d="M-1125.8,8080c-0.4-0.2-0.8-0.1-1,0.3c-0.3,0.5-0.5,1-0.8,1.4c-0.1,0.2-0.1,0.5,0,0.8l0.7,1.3
				c0.1,0.3,0.4,0.4,0.7,0.4c0.1,0,0.2,0,0.4-0.1c0.4-0.2,0.5-0.7,0.3-1l-0.5-0.9c0.2-0.4,0.4-0.7,0.6-1.1
				C-1125.3,8080.7-1125.4,8080.2-1125.8,8080C-1125.8,8080-1125.8,8080-1125.8,8080z"/>
			<path id="Pfad_507" class="st1" d="M-1154.8,8047l-0.4,0c-0.4,0-0.6,0.4-0.6,0.8c0,0.4,0.5,0.7,1,0.8c0.9,0,1.7,0.1,2.6,0.2
				c0,0,0.1,0,0.1,0c0.4,0,0.7-0.3,0.8-0.7c0.1-0.4-0.2-0.8-0.6-0.9c0,0,0,0,0,0C-1152.9,8047.1-1153.8,8047-1154.8,8047z"/>
			<path id="Pfad_508" class="st1" d="M-1123.3,8041l-2.2-2.2c-0.3-0.3-0.8-0.3-1.1,0c-0.3,0.3-0.3,0.8,0,1.1l2.2,2.2
				c0.1,0.1,0.3,0.2,0.5,0.2c0.2,0,0.4-0.1,0.5-0.2C-1123.1,8041.8-1123.3,8041.4-1123.3,8041z"/>
			<path id="Pfad_509" class="st1" d="M-1135.7,8037.2c0.1,0,0.2,0,0.4-0.1l2.7-1.4c0.4-0.2,0.5-0.7,0.3-1c-0.2-0.4-0.7-0.5-1-0.3
				l-2.7,1.4c-0.4,0.2-0.5,0.7-0.3,1C-1136.2,8037.1-1136,8037.2-1135.7,8037.2z"/>
			<path id="Pfad_510" class="st1" d="M-1183,8049.9c-0.4-0.2-0.8-0.1-1,0.3c-0.5,0.9-0.9,1.9-1.3,2.9c-0.2,0.4,0,0.8,0.4,1
				c0.1,0,0.2,0.1,0.3,0.1c0.3,0,0.6-0.2,0.7-0.5c0.4-0.9,0.8-1.8,1.3-2.7C-1182.5,8050.6-1182.7,8050.1-1183,8049.9z"/>
			<path id="Pfad_511" class="st1" d="M-1149.9,8026.7c0-0.4-0.3-0.8-0.8-0.8c0,0,0,0,0,0h-3.1c-0.4,0-0.8,0.3-0.8,0.8
				c0,0.4,0.3,0.8,0.8,0.8h3.1C-1150.3,8027.5-1149.9,8027.1-1149.9,8026.7z"/>
			<path id="Pfad_512" class="st1" d="M-1136.5,8061.8c-0.1-0.4-0.5-0.7-0.9-0.6c-0.4,0.1-0.7,0.5-0.6,0.9c0,0,0,0,0,0
				c0.2,1,0.3,2,0.3,2.9c0,0.4,0.4,0.8,0.8,0.8h0c0.4,0,0.8-0.4,0.8-0.8C-1136.2,8064-1136.3,8062.9-1136.5,8061.8z"/>
			<path id="Pfad_513" class="st1" d="M-1138.1,8071.9c0.1,0,0.2,0,0.2,0c0.3,0,0.6-0.2,0.7-0.5c0.3-1,0.6-2.1,0.7-3.1
				c0.1-0.4-0.2-0.8-0.7-0.9c0,0,0,0,0,0c-0.4-0.1-0.8,0.2-0.9,0.6c0,0,0,0,0,0c-0.1,1-0.4,1.9-0.7,2.9
				C-1138.7,8071.3-1138.5,8071.8-1138.1,8071.9C-1138.1,8071.9-1138.1,8071.9-1138.1,8071.9z"/>
			<path id="Pfad_514" class="st1" d="M-1138.4,8038.5c0.3,0,0.5-0.1,0.7-0.4c0.2-0.4,0.1-0.8-0.3-1.1c-0.9-0.5-1.9-1-2.8-1.5
				c-0.4-0.2-0.8,0-1,0.4c0,0,0,0,0,0c-0.2,0.4,0,0.8,0.4,1c0,0,0,0,0,0c0.9,0.4,1.8,0.9,2.7,1.4
				C-1138.7,8038.5-1138.5,8038.5-1138.4,8038.5z"/>
			<path id="Pfad_515" class="st1" d="M-1138.9,8059.3c0.1,0.3,0.4,0.5,0.7,0.5c0.1,0,0.2,0,0.3-0.1c0.4-0.2,0.6-0.6,0.4-1
				c-0.4-1-0.9-2-1.4-2.9c-0.2-0.4-0.7-0.5-1.1-0.3c0,0,0,0,0,0c-0.4,0.2-0.5,0.7-0.3,1.1
				C-1139.7,8057.5-1139.3,8058.4-1138.9,8059.3z"/>
			<path id="Pfad_516" class="st1" d="M-1142,8054.3c0.1,0.2,0.4,0.3,0.6,0.3c0.2,0,0.4-0.1,0.5-0.2c0.3-0.3,0.3-0.8,0.1-1.1
				c0,0,0,0,0,0c-0.7-0.8-1.5-1.5-2.3-2.2c-0.3-0.3-0.8-0.2-1.1,0.1c-0.3,0.3-0.2,0.8,0.1,1.1
				C-1143.4,8052.9-1142.6,8053.6-1142,8054.3z"/>
			<path id="Pfad_517" class="st1" d="M-1140.5,8093.8c-0.9,0.5-1.8,0.9-2.8,1.2c-0.4,0.2-0.6,0.6-0.4,1c0,0,0,0,0,0
				c0.1,0.3,0.4,0.5,0.7,0.5c0.1,0,0.2,0,0.3-0.1c1-0.4,2-0.8,2.9-1.3c0.4-0.2,0.5-0.7,0.3-1c0,0,0,0,0,0
				C-1139.7,8093.7-1140.1,8093.6-1140.5,8093.8z"/>
			<path id="Pfad_518" class="st1" d="M-1185.7,8075.2c-0.4,0.1-0.6,0.6-0.5,1c0,0,0,0,0,0c0.3,1,0.7,2,1.2,2.9
				c0.1,0.3,0.4,0.5,0.7,0.5c0.1,0,0.2,0,0.3-0.1c0.4-0.2,0.6-0.6,0.4-1c-0.4-0.9-0.8-1.9-1.1-2.8
				C-1184.8,8075.3-1185.2,8075.1-1185.7,8075.2C-1185.6,8075.2-1185.7,8075.2-1185.7,8075.2z"/>
			<path id="Pfad_519" class="st1" d="M-1137.1,8093.1c-0.4-0.2-0.8,0-1,0.3c-0.2,0.4-0.1,0.8,0.3,1l2.7,1.4
				c0.1,0.1,0.2,0.1,0.4,0.1c0.3,0,0.6-0.2,0.7-0.4c0.2-0.4,0.1-0.8-0.3-1c0,0,0,0,0,0L-1137.1,8093.1z"/>
			<path id="Pfad_520" class="st1" d="M-1142.2,8078.3c-0.3-0.3-0.8-0.3-1.1-0.1c0,0,0,0,0,0c-0.7,0.7-1.5,1.3-2.4,1.8
				c-0.4,0.2-0.5,0.7-0.2,1.1c0,0,0,0,0,0c0.1,0.2,0.4,0.4,0.7,0.4c0.1,0,0.3,0,0.4-0.1c0.9-0.6,1.8-1.2,2.6-1.9
				C-1142,8079.1-1142,8078.6-1142.2,8078.3z"/>
			<path id="Pfad_521" class="st1" d="M-1146.1,8096c-0.3,0.1-0.6,0.2-0.9,0.2c-0.3,0.1-0.5,0.3-0.5,0.5l-0.7,2.1
				c-0.1,0.4,0.1,0.8,0.5,1c0,0,0,0,0,0c0.1,0,0.2,0,0.2,0c0.3,0,0.6-0.2,0.7-0.5l0.5-1.7c0.2,0,0.3-0.1,0.5-0.1
				c0.4-0.1,0.6-0.5,0.5-1C-1145.3,8096.1-1145.7,8095.9-1146.1,8096C-1146.1,8096-1146.1,8096-1146.1,8096z"/>
			<path id="Pfad_522" class="st1" d="M-1130.2,8094.9l-1.2,1.2l-0.2-0.1c-0.4-0.2-0.8,0-1,0.3c-0.2,0.4-0.1,0.8,0.3,1l0.7,0.4
				c0.1,0.1,0.2,0.1,0.4,0.1c0.2,0,0.4-0.1,0.5-0.2l1.6-1.6c0.3-0.3,0.3-0.8,0-1.1C-1129.4,8094.6-1129.9,8094.6-1130.2,8094.9z"/>
			<path id="Pfad_523" class="st1" d="M-1147.3,8081.8c-0.2-0.4-0.6-0.6-1-0.4c-0.9,0.4-1.9,0.7-2.8,0.9c-0.4,0.1-0.7,0.5-0.6,0.9
				c0.1,0.4,0.4,0.6,0.8,0.6c0.1,0,0.1,0,0.2,0c1.1-0.2,2.1-0.5,3.1-1C-1147.3,8082.7-1147.1,8082.2-1147.3,8081.8z"/>
			<path id="Pfad_524" class="st1" d="M-1148.1,8101.2c-0.4-0.1-0.8,0.1-1,0.5c0,0,0,0,0,0l-0.6,2c-0.4,0.1-0.6,0.4-0.6,0.8
				c0,0.4,0.3,0.8,0.8,0.8h0.4c0.3,0,0.6-0.2,0.7-0.5l0.8-2.5C-1147.5,8101.8-1147.7,8101.4-1148.1,8101.2z"/>
			<path id="Pfad_525" class="st1" d="M-1127.7,8037.7c0.3-0.3,0.3-0.8,0-1.1c0,0,0,0,0,0l-2.2-2.2c-0.3-0.3-0.8-0.3-1.1,0
				c0,0,0,0,0,0c-0.3,0.3-0.3,0.8,0,1.1c0,0,0,0,0,0l2.2,2.2c0.1,0.1,0.3,0.2,0.5,0.2C-1128,8037.9-1127.8,8037.8-1127.7,8037.7z"/>
			<path id="Pfad_526" class="st1" d="M-1116.2,8059.9c0.1-0.4-0.1-0.8-0.5-1l-3-0.9c-0.4-0.1-0.8,0.1-1,0.5c0,0,0,0,0,0
				c-0.1,0.4,0.1,0.8,0.5,1l3,0.9c0.1,0,0.2,0,0.2,0C-1116.6,8060.4-1116.3,8060.2-1116.2,8059.9z"/>
			<path id="Pfad_527" class="st1" d="M-1115.9,8067.3c-0.4,0-0.8,0.3-0.8,0.8l0,0v2.8c-0.1,0.2-0.1,0.3,0,0.5
				c0.1,0.3,0.4,0.5,0.8,0.5c0.1,0,0.2,0,0.2,0c0.3-0.1,0.5-0.4,0.5-0.7v-3.1C-1115.1,8067.7-1115.4,8067.4-1115.9,8067.3z"/>
			<path id="Pfad_528" class="st1" d="M-1152.7,8103.7h-3.1c-0.4,0-0.8,0.3-0.8,0.8c0,0.4,0.3,0.8,0.8,0.8h3.1
				c0.4,0,0.8-0.3,0.8-0.8C-1151.9,8104.1-1152.3,8103.7-1152.7,8103.7z"/>
			<path id="Pfad_529" class="st1" d="M-1115.9,8061.2c-0.4,0-0.8,0.3-0.8,0.8l0,0v3.1c0,0.4,0.3,0.8,0.8,0.8c0.4,0,0.8-0.3,0.8-0.8
				v-3.1C-1115.1,8061.5-1115.4,8061.2-1115.9,8061.2L-1115.9,8061.2z"/>
			<path id="Pfad_530" class="st1" d="M-1125.8,8090.6l-2.2,2.2c-0.3,0.3-0.3,0.8,0,1.1c0,0,0,0,0,0c0.1,0.1,0.3,0.2,0.5,0.2
				c0.2,0,0.4-0.1,0.5-0.2l2.2-2.2c0.3-0.3,0.3-0.8,0-1.1C-1125,8090.3-1125.5,8090.3-1125.8,8090.6z"/>
			<path id="Pfad_531" class="st1" d="M-1119.1,8071.4l-3,0.9c-0.4,0.1-0.6,0.6-0.5,1l0,0c0.1,0.3,0.4,0.5,0.7,0.5
				c0.1,0,0.2,0,0.2,0l3-0.9c0.4-0.1,0.6-0.6,0.5-1C-1118.3,8071.5-1118.7,8071.3-1119.1,8071.4z"/>
			<path id="Pfad_532" class="st1" d="M-1124.2,8085.8c-0.2-0.4-0.7-0.5-1-0.3c0,0,0,0,0,0c-0.4,0.2-0.5,0.7-0.3,1l1.4,2.7
				c0.1,0.3,0.4,0.4,0.7,0.4c0.1,0,0.2,0,0.4-0.1c0.4-0.2,0.5-0.7,0.3-1L-1124.2,8085.8z"/>
			<path id="Pfad_533" class="st1" d="M-1139.7,8073.6c-0.5,0.9-1,1.7-1.6,2.5c-0.3,0.3-0.2,0.8,0.1,1.1c0,0,0,0,0,0
				c0.1,0.1,0.3,0.2,0.5,0.2c0.2,0,0.5-0.1,0.6-0.3c0.7-0.8,1.2-1.8,1.8-2.7c0.2-0.4,0.1-0.8-0.3-1h0
				C-1139,8073.1-1139.5,8073.3-1139.7,8073.6z"/>
			<path id="Pfad_534" class="st1" d="M-1179.4,8036.3c0.3-0.3,0.3-0.8,0-1.1c-0.3-0.3-0.8-0.3-1.1,0l-2.2,2.2
				c-0.3,0.3-0.3,0.8,0,1.1c0.1,0.1,0.3,0.2,0.5,0.2c0.2,0,0.4-0.1,0.5-0.2L-1179.4,8036.3z"/>
			<path id="Pfad_535" class="st1" d="M-1183,8091.3c-0.3-0.3-0.8-0.3-1.1,0c0,0,0,0,0,0c-0.3,0.3-0.3,0.8,0,1.1c0,0,0,0,0,0
				l2.2,2.2c0.1,0.1,0.3,0.2,0.5,0.2c0.2,0,0.4-0.1,0.5-0.2c0.3-0.3,0.3-0.8,0-1.1L-1183,8091.3z"/>
			<path id="Pfad_536" class="st1" d="M-1183.7,8085.1c0.3,0,0.6-0.2,0.7-0.4l1.1-2.2c0.1-0.2,0.1-0.5,0-0.8
				c-0.1-0.2-0.2-0.3-0.3-0.5c-0.2-0.4-0.7-0.5-1-0.3c0,0,0,0,0,0c-0.4,0.2-0.5,0.7-0.3,1.1c0,0,0,0,0,0c0,0.1,0.1,0.1,0.1,0.2
				l-1,1.8c-0.2,0.4-0.1,0.8,0.3,1C-1184,8085.1-1183.8,8085.1-1183.7,8085.1z"/>
			<path id="Pfad_537" class="st1" d="M-1188.5,8058.4c0.1,0.3,0.4,0.5,0.7,0.5c0.1,0,0.2,0,0.2,0l1.6-0.5c0.3-0.1,0.5-0.3,0.5-0.5
				c0.1-0.4,0.2-0.9,0.4-1.3c0.1-0.4-0.1-0.8-0.5-1c-0.4-0.1-0.8,0.1-1,0.5c0,0,0,0,0,0c-0.1,0.3-0.2,0.6-0.3,0.9l-1.2,0.4
				C-1188.4,8057.5-1188.6,8058-1188.5,8058.4C-1188.5,8058.4-1188.5,8058.4-1188.5,8058.4z"/>
			<path id="Pfad_538" class="st1" d="M-1177,8095.5l-1.2,0.6l-0.5-0.4c-0.3-0.3-0.8-0.3-1.1,0c-0.3,0.3-0.3,0.8,0,1.1l0.9,0.9
				c0.1,0.1,0.3,0.2,0.5,0.2c0.1,0,0.2,0,0.4-0.1l1.7-0.9c0.4-0.2,0.5-0.7,0.3-1c0,0,0,0,0,0
				C-1176.2,8095.5-1176.6,8095.3-1177,8095.5z"/>
			<path id="Pfad_539" class="st1" d="M-1182.5,8047.5l-1.4-2.7c-0.2-0.4-0.7-0.5-1-0.3c-0.4,0.2-0.5,0.7-0.3,1l1.4,2.7
				c0.1,0.3,0.4,0.4,0.7,0.4c0.1,0,0.2,0,0.4-0.1C-1182.5,8048.3-1182.3,8047.9-1182.5,8047.5z"/>
			<path id="Pfad_540" class="st1" d="M-1184.9,8039.6l-1.9,1.9c-0.2,0.2-0.3,0.6-0.1,0.9l0.2,0.3c0.1,0.3,0.4,0.4,0.7,0.4
				c0.1,0,0.2,0,0.4-0.1c0.3-0.2,0.5-0.5,0.4-0.8l1.6-1.6c0.3-0.3,0.3-0.8,0-1.1c0,0,0,0,0,0
				C-1184.1,8039.3-1184.6,8039.3-1184.9,8039.6z"/>
			<path id="Pfad_541" class="st1" d="M-1165.3,8095.4c-0.9-0.3-1.9-0.7-2.8-1.1c-0.4-0.2-0.8,0-1,0.4c-0.2,0.4,0,0.8,0.4,1
				c1,0.5,2,0.9,2.9,1.2c0.1,0,0.2,0,0.3,0c0.3,0,0.6-0.2,0.7-0.5C-1164.7,8095.9-1164.9,8095.5-1165.3,8095.4
				C-1165.3,8095.4-1165.3,8095.4-1165.3,8095.4z"/>
			<path id="Pfad_542" class="st1" d="M-1161,8099.8l-0.9-3c-0.1-0.4-0.6-0.6-1-0.5c-0.4,0.1-0.6,0.6-0.5,1c0,0,0,0,0,0l0.9,3
				c0.1,0.3,0.4,0.5,0.7,0.5c0.1,0,0.2,0,0.2,0C-1161.1,8100.6-1160.9,8100.2-1161,8099.8C-1161,8099.8-1161,8099.8-1161,8099.8z"/>
			<path id="Pfad_543" class="st1" d="M-1174.2,8036.3c0.2-0.4,0.1-0.8-0.3-1c0,0,0,0,0,0l-2.7-1.4c-0.4-0.2-0.8,0-1,0.3
				c-0.2,0.4-0.1,0.8,0.3,1l2.7,1.4c0.1,0.1,0.2,0.1,0.4,0.1C-1174.6,8036.7-1174.3,8036.6-1174.2,8036.3z"/>
			<path id="Pfad_544" class="st1" d="M-1160.8,8083.2c0.3,0,0.6-0.2,0.7-0.5c0.1-0.4-0.1-0.8-0.5-1c0,0,0,0,0,0
				c-0.9-0.3-1.8-0.8-2.7-1.2c-0.4-0.2-0.8-0.1-1,0.3c0,0,0,0,0,0c-0.2,0.4-0.1,0.8,0.3,1.1c0,0,0,0,0,0c0.9,0.5,1.9,1,2.9,1.4
				C-1161,8083.1-1160.9,8083.2-1160.8,8083.2z"/>
			<path id="Pfad_545" class="st1" d="M-1158.9,8103.7h-0.9l-0.3-1c-0.1-0.4-0.6-0.6-1-0.5c-0.4,0.1-0.6,0.6-0.5,1l0.5,1.5
				c0.1,0.3,0.4,0.5,0.7,0.5h1.5c0.4,0,0.8-0.3,0.8-0.8C-1158.1,8104.1-1158.5,8103.7-1158.9,8103.7z"/>
			<path id="Pfad_546" class="st1" d="M-1154,8084.2c0.4,0,0.8-0.4,0.7-0.8c0,0,0,0,0,0c0-0.4-0.4-0.7-0.8-0.7h0
				c-1.2,0.1-2.4,0-3.7-0.2c-0.4-0.1-0.8,0.2-0.9,0.6c0,0,0,0,0,0c-0.1,0.4,0.2,0.8,0.6,0.9c0,0,0,0,0,0c1.1,0.2,2.1,0.3,3.2,0.3
				C-1154.5,8084.2-1154.3,8084.2-1154,8084.2z"/>
			<path id="Pfad_547" class="st1" d="M-1170.8,8071.6c-0.1-0.4-0.6-0.6-1-0.5c0,0,0,0,0,0c-0.4,0.1-0.6,0.6-0.5,1
				c0.4,1,0.8,2,1.4,2.9c0.1,0.2,0.4,0.4,0.7,0.4c0.1,0,0.3,0,0.4-0.1c0.4-0.2,0.5-0.7,0.3-1.1
				C-1170,8073.4-1170.4,8072.5-1170.8,8071.6z"/>
			<path id="Pfad_548" class="st1" d="M-1171.6,8092.7l-2.6,1.4c-0.4,0.2-0.5,0.7-0.3,1c0.1,0.3,0.4,0.4,0.7,0.4
				c0.1,0,0.2,0,0.4-0.1l2.3-1.2h0c0.3,0,0.5-0.2,0.7-0.4c0.2-0.4,0-0.9-0.3-1.1C-1171.1,8092.6-1171.4,8092.6-1171.6,8092.7z"/>
			<path id="Pfad_549" class="st1" d="M-1182.6,7985.4l-3.7,7l7.9,7.9l7-3.7c2.7,1.6,5.5,2.8,8.5,3.5l2.4,7.6h11.2l2.4-7.6
				c3-0.8,5.9-2,8.5-3.5l7,3.7l7.9-7.9l-3.7-7c1.6-2.7,2.8-5.5,3.5-8.5l7.6-2.4v-11.2l-7.6-2.4c-0.8-3-2-5.9-3.5-8.5l3.7-7l-7.9-7.9
				l-7,3.7c-2.7-1.6-5.5-2.8-8.5-3.5l-2.4-7.6h-11.2l-2.4,7.6c-3,0.8-5.9,2-8.5,3.5l-7-3.7l-7.9,7.9l3.7,7c-1.6,2.7-2.8,5.5-3.5,8.5
				l-7.6,2.4v11.2l7.6,2.4C-1185.3,7979.8-1184.2,7982.7-1182.6,7985.4z M-1154.8,7951c9.9,0,17.8,8,17.8,17.8l0,0
				c0,9.9-8,17.8-17.8,17.8c-9.9,0-17.8-8-17.8-17.8C-1172.6,7959-1164.6,7951-1154.8,7951L-1154.8,7951z"/>
			<path id="Pfad_550" class="st1" d="M-1215.7,8046.5c0.2,0.2,0.5,0.4,0.7,0.6c0.1,0,0.1,0.1,0.2,0.1c0.2,0.1,0.4,0.2,0.6,0.3
				c0.1,0,0.2,0.1,0.3,0.1c0.2,0.1,0.4,0.1,0.6,0.2c0.3,0.1,0.6,0.1,0.9,0.1c0.3,0,0.6,0,0.9-0.1c0.2,0,0.4-0.1,0.6-0.2
				c0.1,0,0.2-0.1,0.3-0.1c0.2-0.1,0.4-0.2,0.6-0.3c0.1,0,0.1-0.1,0.2-0.1c0.3-0.2,0.5-0.4,0.7-0.6l26.8-26.8c1.8-1.8,1.8-4.8,0-6.6
				c-1.8-1.8-4.8-1.8-6.6,0c0,0,0,0,0,0l-18.9,18.9v-95.2c0-2.6-2.1-4.6-4.6-4.6c-2.6,0-4.6,2.1-4.6,4.6l0,0v95.2l-18.9-18.9
				c-1.8-1.8-4.7-1.8-6.6,0c0,0,0,0,0,0c-1.8,1.8-1.8,4.7,0,6.6c0,0,0,0,0,0L-1215.7,8046.5z"/>
		</g>
	</g>
</g>
</svg>
