<?xml version="1.0" encoding="utf-8"?>
<!-- Generator: Adobe Illustrator 24.3.0, SVG Export Plug-In . SVG Version: 6.00 Build 0)  -->
<svg version="1.1" id="Ebene_1" xmlns="http://www.w3.org/2000/svg" xmlns:xlink="http://www.w3.org/1999/xlink" x="0px" y="0px"
	 viewBox="0 0 250 250" style="enable-background:new 0 0 250 250;" xml:space="preserve">
<style type="text/css">
	.st0{fill:#2A6DB1;}
	.st1{fill:#FFFFFF;stroke:#FFFFFF;stroke-width:2;}
	.st2{fill:#FFFFFF;}
</style>
<g id="Gruppe_492" transform="translate(-1457 -400)">
	<g id="Gruppe_491" transform="translate(3424.242 -7771.929)">
		<g id="Gruppe_408">
			<path id="Pfad_307" class="st0" d="M-1842.2,8421.9c-69-0.1-124.9-56-125-125c0.1-69,56-124.9,125-125c69,0.1,124.9,56,125,125
				C-1717.3,8365.9-1773.2,8421.8-1842.2,8421.9z M-1842.2,8183.5c-62.6,0.1-113.4,50.8-113.5,113.5
				c0.1,62.6,50.8,113.4,113.5,113.5c62.6-0.1,113.4-50.8,113.5-113.5C-1728.9,8234.3-1779.6,8183.5-1842.2,8183.5L-1842.2,8183.5z"
				/>
		</g>
		<path id="Pfad_474" class="st1" d="M-1849.2,8364.7h-49.6c-5.4,0-9.8-4.4-9.8-9.8v-49.6c0-5.4,4.4-9.8,9.8-9.8h18.3
			c-0.3-1-0.9-2-1.7-2.7c-2.4-2.3-3.8-5.4-3.8-8.7l0,0c0-6.6,5.3-11.9,11.9-11.9c6.6,0,11.9,5.3,11.9,11.9c0,3.3-1.4,6.5-3.8,8.7
			c-0.8,0.7-1.3,1.7-1.6,2.7h18.3c5.4,0,9.8,4.4,9.8,9.8v19.7c0,0.3-0.1,0.6-0.4,0.9c-0.2,0.2-0.6,0.4-0.9,0.3
			c-2.1-0.1-4.1-1-5.6-2.6c-1.8-1.9-4.3-3-7-3c-5.2,0-9.5,4.3-9.5,9.5c0,5.2,4.2,9.5,9.5,9.5h0c2.6,0,5.2-1.1,7-3
			c1.5-1.6,3.5-2.5,5.6-2.6c0.3,0,0.7,0.1,0.9,0.3c0.2,0.2,0.4,0.5,0.4,0.9v19.8C-1839.4,8360.3-1843.8,8364.7-1849.2,8364.7z
			 M-1898.8,8298c-4.1,0-7.4,3.3-7.4,7.4v49.6c0,4.1,3.3,7.4,7.4,7.4h49.6c4.1,0,7.4-3.3,7.4-7.4v-18.3c-1,0.3-2,0.9-2.7,1.7
			c-2.3,2.4-5.4,3.8-8.7,3.8h0c-6.6,0-11.9-5.3-11.9-11.9c0-6.6,5.3-11.9,11.9-11.9c3.3,0,6.5,1.4,8.7,3.8c0.7,0.8,1.7,1.3,2.7,1.6
			v-18.3c0-4.1-3.3-7.4-7.4-7.4h-19.7c-0.3,0-0.7-0.1-0.9-0.4c-0.2-0.2-0.3-0.6-0.3-0.9c0.1-2.1,1-4.1,2.6-5.6c1.9-1.8,3-4.3,3-7
			c0-5.2-4.3-9.5-9.5-9.5c-5.2,0-9.5,4.2-9.5,9.5c0,2.6,1.1,5.2,3,7c1.6,1.5,2.5,3.5,2.6,5.6c0,0.3-0.1,0.7-0.3,0.9
			c-0.2,0.2-0.5,0.4-0.9,0.4L-1898.8,8298z"/>
		<path id="Pfad_475" class="st1" d="M-1849.2,8298h-19.7c-0.3,0-0.7-0.1-0.9-0.4c-0.2-0.2-0.3-0.6-0.3-0.9c0.1-2.1,1-4.1,2.6-5.6
			c1.9-1.8,3-4.3,3-7c0-5.2-4.3-9.5-9.5-9.5c-5.2,0-9.5,4.2-9.5,9.5c0,2.6,1.1,5.2,3,7c1.6,1.5,2.5,3.5,2.6,5.6
			c0,0.3-0.1,0.7-0.3,0.9c-0.2,0.2-0.5,0.4-0.9,0.4h-19.8c-5.4,0-9.8-4.4-9.8-9.8v-49.6c0-5.4,4.4-9.8,9.8-9.8h49.6
			c5.4,0,9.8,4.4,9.8,9.8v18.4c1-0.3,2-0.9,2.7-1.7c2.3-2.4,5.4-3.8,8.7-3.8c0,0,0,0,0,0c6.6,0,11.9,5.3,11.9,11.9
			c0,6.6-5.3,11.9-11.9,11.9c-3.3,0-6.5-1.4-8.7-3.8c-0.7-0.8-1.7-1.3-2.7-1.6v18.3C-1839.4,8293.6-1843.8,8298-1849.2,8298z
			 M-1867.5,8295.6h18.3c4.1,0,7.4-3.3,7.4-7.4v-19.7c0-0.3,0.1-0.6,0.4-0.9c0.2-0.2,0.6-0.4,0.9-0.3c2.1,0.1,4.1,1,5.6,2.6
			c1.8,1.9,4.3,3,7,3c5.2,0,9.5-4.3,9.5-9.5c0-5.2-4.2-9.5-9.5-9.5h0c-2.6,0-5.2,1.1-7,3c-1.5,1.6-3.5,2.5-5.6,2.6
			c-0.3,0-0.7-0.1-0.9-0.3c-0.2-0.2-0.4-0.5-0.4-0.9v-19.8c0-4.1-3.3-7.4-7.4-7.4h-49.6c-4.1,0-7.4,3.3-7.4,7.4v49.6
			c0,4.1,3.3,7.4,7.4,7.4h18.3c-0.3-1-0.9-2-1.7-2.7c-2.4-2.3-3.8-5.4-3.8-8.7c0-6.6,5.3-11.9,11.9-11.9c6.6,0,11.9,5.3,11.9,11.9
			c0,3.3-1.4,6.5-3.8,8.7C-1866.7,8293.6-1867.3,8294.5-1867.5,8295.6z"/>
		<path id="Pfad_476" class="st2" d="M-1738.8,8255.6c-2.1-2.1-5-3.3-8-3.1c-1.8,0.1-3.6-0.6-5-1.8l14-14c3.4-3.4,3.4-8.8,0-12.1
			l-35.1-35.1c-3.4-3.4-8.8-3.4-12.1,0c0,0,0,0,0,0l-35.1,35.1c-3.4,3.4-3.4,8.8,0,12.1l14,14c1.2-1.4,1.9-3.2,1.8-5
			c-0.1-3,1-5.9,3.1-8c4.2-4.2,10.9-4.2,15.1,0c4.2,4.2,4.2,10.9,0,15.1c-2.1,2.1-5,3.2-8,3.1c-1.8,0-3.6,0.6-5,1.8l13.9,13.9
			c3.4,3.4,8.8,3.4,12.1,0l13.9-13.9c1.2,1.4,1.9,3.1,1.8,5c-0.1,3,1,5.9,3.1,8c4.2,4.2,11,4.2,15.1,0
			C-1734.6,8266.5-1734.6,8259.7-1738.8,8255.6z"/>
		<path id="Pfad_477" class="st1" d="M-1782.4,8364.7h-49.6c-5.4,0-9.8-4.4-9.8-9.8v-18.4c-1,0.3-2,0.9-2.7,1.7
			c-2.3,2.4-5.4,3.8-8.7,3.8h0c-6.6,0-11.9-5.3-11.9-11.9c0-6.6,5.3-11.9,11.9-11.9c3.3,0,6.5,1.4,8.7,3.8c0.7,0.8,1.7,1.3,2.7,1.6
			v-18.3c0-5.4,4.4-9.8,9.8-9.8h19.7c0.3,0,0.7,0.1,0.9,0.4c0.2,0.2,0.3,0.6,0.3,0.9c-0.1,2.1-1,4.1-2.6,5.6c-1.9,1.8-3,4.3-3,7
			c0,5.2,4.3,9.5,9.5,9.5c5.2,0,9.5-4.2,9.5-9.5c0-2.6-1.1-5.2-3-7c-1.6-1.5-2.5-3.5-2.6-5.6c0-0.3,0.1-0.7,0.3-0.9
			c0.2-0.2,0.5-0.4,0.9-0.4h19.8c5.4,0,9.8,4.4,9.8,9.8v49.6C-1772.6,8360.3-1777,8364.7-1782.4,8364.7z M-1840.6,8334
			c0.3,0,0.6,0.1,0.8,0.3c0.2,0.2,0.4,0.5,0.4,0.9v19.8c0,4.1,3.3,7.4,7.4,7.4h49.6c4.1,0,7.4-3.3,7.4-7.4v-49.6
			c0-4.1-3.3-7.4-7.4-7.4h-18.3c0.3,1,0.9,2,1.7,2.7c2.4,2.3,3.8,5.4,3.8,8.7c0,6.6-5.3,11.9-11.9,11.9c-6.6,0-11.9-5.3-11.9-11.9
			c0-3.3,1.4-6.5,3.8-8.7c0.8-0.7,1.3-1.7,1.6-2.7h-18.3c-4.1,0-7.4,3.3-7.4,7.4v19.7c0,0.3-0.1,0.6-0.4,0.9
			c-0.2,0.2-0.6,0.4-0.9,0.3c-2.1-0.1-4.1-1-5.6-2.6c-1.8-1.9-4.3-3-7-3c-5.2,0-9.5,4.3-9.5,9.5c0,5.2,4.2,9.5,9.5,9.5l0,0
			c2.6,0,5.2-1.1,7-3C-1844.8,8335-1842.8,8334.1-1840.6,8334C-1840.7,8334-1840.6,8334-1840.6,8334L-1840.6,8334z"/>
	</g>
</g>
</svg>
