<?xml version="1.0" encoding="utf-8"?>
<!-- Generator: Adobe Illustrator 24.3.0, SVG Export Plug-In . SVG Version: 6.00 Build 0)  -->
<svg version="1.1" id="Ebene_1" xmlns="http://www.w3.org/2000/svg" xmlns:xlink="http://www.w3.org/1999/xlink" x="0px" y="0px"
	 viewBox="0 0 250 250" style="enable-background:new 0 0 250 250;" xml:space="preserve">
<style type="text/css">
	.st0{fill:#2A6DB1;}
	.st1{fill:#FFFFFF;}
</style>
<g id="Gruppe_504" transform="translate(-1463 -423)">
	<g id="Gruppe_503" transform="translate(1606.761 -6520.025)">
		<g id="Gruppe_408_7_">
			<path id="Pfad_307_7_" class="st0" d="M-19,7193c-69-0.1-124.9-56-125-125c0.1-69,56-124.9,125-125c69,0.1,124.9,56,125,125
				C105.9,7137,50,7192.9-19,7193z M-19,6954.5c-62.6,0.1-113.4,50.8-113.5,113.5c0.1,62.6,50.8,113.4,113.5,113.5
				c62.6-0.1,113.4-50.8,113.5-113.5C94.4,7005.4,43.6,6954.6-19,6954.5L-19,6954.5z"/>
		</g>
		<g id="Gruppe_502" transform="translate(2.453 3.803)">
			<path id="Pfad_575" class="st1" d="M-35.9,7131.3l12.9,52.9c0.2,0.8,1,1.3,1.9,1.1c0.6-0.1,1-0.6,1.1-1.1l12.9-52.9H-35.9z"/>
			<path id="Pfad_576" class="st1" d="M50.1,7044.4c-1.4-3.4-3.6-6.3-6.4-8.6L23,7019.4c2.7,9.4,4.2,19.1,4.4,28.8
				c0,15.4-2.1,27.5-5.7,36.7c11,1.9,21,7.6,28.2,16.1c1.4,1.6,3.9,1.8,5.5,0.4c0.7-0.6,1.2-1.5,1.3-2.4
				C59.2,7080.5,56.9,7061.7,50.1,7044.4z"/>
			<path id="Pfad_577" class="st1" d="M-93,7044.4c1.4-3.4,3.6-6.3,6.4-8.6l20.7-16.5c-2.7,9.4-4.2,19.1-4.4,28.8
				c0,15.4,2.1,27.5,5.7,36.7c-11,1.9-21,7.6-28.2,16.1c-1.4,1.6-3.9,1.8-5.5,0.4c-0.7-0.6-1.2-1.5-1.3-2.4
				C-102.1,7080.5-99.8,7061.7-93,7044.4z"/>
			<g id="Gruppe_501" transform="translate(-83.851 6944.102)">
				<path id="Pfad_578" class="st1" d="M62.4,69.9C50.6,69.9,41,79.5,41,91.3c0,11.8,9.6,21.4,21.5,21.5c11.8,0,21.4-9.6,21.5-21.5
					C83.9,79.5,74.3,69.9,62.4,69.9z M67.7,108.3c-9.4,2.9-19.3-2.3-22.2-11.7c0,0,0,0,0,0c-2.9-9.4,2.3-19.3,11.7-22.2
					c9.4-2.9,19.3,2.3,22.2,11.7c0,0,0,0,0,0C82.3,95.4,77,105.4,67.7,108.3z"/>
				<path id="Pfad_579" class="st1" d="M65.5,3.3c-1.1-1.7-3.4-2.2-5.2-1.1c-0.4,0.3-0.8,0.6-1.1,1.1
					c-9.7,14.8-38.8,62.3-38.8,100.8c0,29.7,7.7,46.8,19.4,55.3l1,17.5c0.1,1.9,1.7,3.4,3.6,3.4h35.9c1.9,0,3.5-1.5,3.6-3.4l1-17.5
					c11.7-8.5,19.4-25.6,19.4-55.3C104.3,65.6,75.2,18.1,65.5,3.3z M62.4,116c-13.6,0-24.7-11.1-24.7-24.7
					c0-13.6,11.1-24.7,24.7-24.7c13.6,0,24.7,11.1,24.7,24.7C87.1,105,76,116,62.4,116L62.4,116z"/>
			</g>
		</g>
	</g>
</g>
</svg>
