<?xml version="1.0" encoding="utf-8"?>
<!-- Generator: Adobe Illustrator 24.3.0, SVG Export Plug-In . SVG Version: 6.00 Build 0)  -->
<svg version="1.1" id="Ebene_1" xmlns="http://www.w3.org/2000/svg" xmlns:xlink="http://www.w3.org/1999/xlink" x="0px" y="0px"
	 viewBox="0 0 250 250" style="enable-background:new 0 0 250 250;" xml:space="preserve">
<style type="text/css">
	.st0{fill:#2A6DB1;}
	.st1{fill:#FFFFFF;}
</style>
<g id="Gruppe_477" transform="translate(2512.31 -8190.734)">
	<g id="Gruppe_408" transform="translate(-2457.526 8209.977)">
		<path id="Pfad_307" class="st0" d="M52.9,190.4c-44,0-79.8-35.8-79.8-79.8S8.9,30.9,52.9,30.9s79.8,35.8,79.8,79.8
			S96.9,190.4,52.9,190.4z M52.9,38.3c-39.9,0-72.4,32.5-72.4,72.4s32.5,72.4,72.4,72.4s72.4-32.5,72.4-72.4S92.8,38.3,52.9,38.3z"
			/>
	</g>
	<g id="Gruppe_409" transform="translate(-2512.31 8190.734)">
		<path id="Pfad_308" class="st1" d="M244.1,104.4c-3.2,0-5.9,2.6-5.9,5.9c0,0,0,0,0,0c0,1.1,0.3,2.2,0.9,3.2l-30.5,29h-52.9
			c1.4-4.6,2.1-9.5,2.1-14.3c0-27.7-22.5-50.2-50.2-50.2c-13.3,0-26,5.2-35.4,14.6L62.1,45.1H11.6c-0.5-2.8-2.9-4.8-5.7-4.8
			C2.6,40.3,0,43,0,46.2C0,49.4,2.6,52,5.9,52c0,0,0,0,0,0c2.8,0,5.2-2,5.7-4.8h48.8l10,47.2c-8.3,9.2-13,21.2-12.9,33.6
			c0,27.7,22.5,50.2,50.2,50.2c0,0,0,0,0,0c11,0,21.8-3.6,30.5-10.4l38.1,38.1c1.2,1.2,2.9,1.9,4.6,1.9c1.7,0,3.4-0.7,4.7-1.9
			c2.6-2.6,2.6-6.7,0-9.3c0,0,0,0,0,0l-38.1-38.1c3.3-4.2,5.8-9,7.6-14.1h54.5l31.2-29.6c1,0.7,2.2,1.1,3.4,1.1
			c3.2,0,5.9-2.6,5.9-5.9c0,0,0,0,0,0C250,107,247.4,104.4,244.1,104.4C244.1,104.4,244.1,104.4,244.1,104.4z M70.6,128.1
			c0-20.5,16.6-37,37.1-37.1c20.5,0,37,16.6,37.1,37.1c0,20.5-16.6,37-37.1,37.1C87.2,165.2,70.6,148.6,70.6,128.1L70.6,128.1z"/>
		<path id="Pfad_309" class="st1" d="M127.6,128.9h-5l-5.2-8c-0.5-0.7-1.3-1.1-2.1-1c-0.8,0.1-1.5,0.6-1.8,1.4l-4.4,12.2l-6.1-18.1
			c-0.3-0.8-1-1.4-1.9-1.5c-0.9-0.1-1.7,0.4-2.1,1.2l-7.4,14.4H82c-1.2,0-2.2,1-2.2,2.2s1,2.2,2.2,2.2h10.9c0.8,0,1.6-0.5,2-1.2
			l5.6-11l6.4,19.1c0.3,0.9,1.1,1.5,2.1,1.5h0c0.9,0,1.7-0.6,2.1-1.4l5.1-14l3.5,5.3c0.4,0.6,1.1,1,1.8,1h6.2c1.2,0,2.2-1,2.2-2.2
			C129.8,129.9,128.8,128.9,127.6,128.9z"/>
	</g>
</g>
</svg>
