<?xml version="1.0" encoding="utf-8"?>
<!-- Generator: Adobe Illustrator 24.3.0, SVG Export Plug-In . SVG Version: 6.00 Build 0)  -->
<svg version="1.1" id="Ebene_1" xmlns="http://www.w3.org/2000/svg" xmlns:xlink="http://www.w3.org/1999/xlink" x="0px" y="0px"
	 viewBox="0 0 250 250" style="enable-background:new 0 0 250 250;" xml:space="preserve">
<style type="text/css">
	.st0{fill:#2A6DB1;}
	.st1{fill:#FFFFFF;}
</style>
<g id="Gruppe_582" transform="translate(-717.934 -7363.502)">
	<g id="Gruppe_408" transform="translate(717.934 7363.502)">
		<path id="Pfad_307" class="st0" d="M125,250C56,250,0,194,0,125S56,0,125,0c69,0,125,56,125,125C249.9,194,194,249.9,125,250z
			 M125,11.5C62.3,11.5,11.5,62.3,11.6,125c0,62.7,50.8,113.5,113.5,113.4c62.7,0,113.5-50.8,113.4-113.5
			C238.4,62.4,187.6,11.6,125,11.5z"/>
	</g>
	<g id="Gruppe_586" transform="translate(-19.871 -952.033)">
		<path id="Pfad_635" class="st1" d="M884.8,8357.4c-8,0-31.9,4-31.9,32.7c0,22.2,27.1,33.5,31.1,69.4c0,0.4,0.4,0.8,0.8,0.8
			c0.4,0,0.8-0.4,0.8-0.8c5.6-35.9,31.1-47.2,31.1-69.4C916.7,8361.4,892.8,8357.4,884.8,8357.4z M884.8,8400.5
			c-6.2,0-11.2-5-11.2-11.2c0-6.2,5-11.2,11.2-11.2c6.2,0,11.2,5,11.2,11.2C896,8395.5,891,8400.5,884.8,8400.5
			C884.8,8400.5,884.8,8400.5,884.8,8400.5z"/>
		<path id="Pfad_636" class="st1" d="M918.2,8446.6h-20l0,0h-15.8l-4.8,9.2h-7.4l6.5-9.2h-16.5l0,0h-21.2c-1.4,0-2.5,1.1-2.5,2.5
			c0,1.4,1.1,2.5,2.5,2.5c0,0,0,0,0.1,0h16l-59.8,57.9c-1.1,1.1-1.2,2.9-0.1,4c0.5,0.6,1.3,0.9,2.1,0.9H829l8.3-11.8h15.9l-6.1,11.8
			h48.3c1.6,0,2.9-1.3,2.9-2.9v-60h20c1.4,0,2.5-1.1,2.5-2.5C920.8,8447.7,919.7,8446.6,918.2,8446.6
			C918.3,8446.6,918.2,8446.6,918.2,8446.6L918.2,8446.6z M858.5,8492.4h-14l8.1-11.5h11.9L858.5,8492.4z M868.8,8472.7h-10.5
			l8.1-11.5h8.4L868.8,8472.7z"/>
	</g>
</g>
</svg>
