<?xml version="1.0" encoding="utf-8"?>
<!-- Generator: Adobe Illustrator 24.3.0, SVG Export Plug-In . SVG Version: 6.00 Build 0)  -->
<svg version="1.1" id="Ebene_1" xmlns="http://www.w3.org/2000/svg" xmlns:xlink="http://www.w3.org/1999/xlink" x="0px" y="0px"
	 viewBox="0 0 250 250" style="enable-background:new 0 0 250 250;" xml:space="preserve">
<style type="text/css">
	.st0{fill:#2A6DB1;}
	.st1{fill:#FFFFFF;}
	.st2{fill:#FFFFFF;stroke:#FFFFFF;}
</style>
<g id="Gruppe_582" transform="translate(-717.934 -7363.502)">
	<g id="Gruppe_408" transform="translate(717.934 7363.502)">
		<path id="Pfad_307" class="st0" d="M125,250C56,250,0,194,0,125S56,0,125,0c69,0,125,56,125,125C249.9,194,194,249.9,125,250z
			 M125,11.5C62.3,11.5,11.5,62.3,11.6,125c0,62.7,50.8,113.5,113.5,113.4c62.7,0,113.5-50.8,113.4-113.5
			C238.4,62.4,187.6,11.6,125,11.5z"/>
	</g>
	<g id="Gruppe_583" transform="translate(733.422 7379.268)">
		<path id="Pfad_630" class="st1" d="M161.6,162.3l-11.2,27.5l-33.6-72.3l72.3,33.6L161.6,162.3z"/>
		<g id="Gruppe_582-2" transform="translate(0 0)">
			<path id="Pfad_631" class="st2" d="M118.8,158.6c-30.6,9-62.8-8.5-71.8-39.2c-9-30.6,8.5-62.8,39.2-71.8
				c30.6-9,62.8,8.5,71.8,39.2c3.1,10.7,3.1,22,0,32.7l6.6,3c10.7-34.2-8.4-70.6-42.7-81.3s-70.6,8.4-81.3,42.7s8.4,70.6,42.7,81.3
				c12.6,3.9,26,3.9,38.6,0L118.8,158.6z"/>
		</g>
	</g>
</g>
</svg>
