<?xml version="1.0" encoding="utf-8"?>
<!-- Generator: Adobe Illustrator 24.3.0, SVG Export Plug-In . SVG Version: 6.00 Build 0)  -->
<svg version="1.1" id="Ebene_1" xmlns="http://www.w3.org/2000/svg" xmlns:xlink="http://www.w3.org/1999/xlink" x="0px" y="0px"
	 viewBox="0 0 250 250" style="enable-background:new 0 0 250 250;" xml:space="preserve">
<style type="text/css">
	.st0{fill:#2A6DB1;}
	.st1{fill:#FFFFFF;}
</style>
<g id="Gruppe_585" transform="translate(-663.974 -7730.298)">
	<g id="Gruppe_408" transform="translate(663.974 7730.298)">
		<path id="Pfad_307" class="st0" d="M125,250C56,250,0,194,0,125S56,0,125,0c69,0,125,56,125,125l0,0C249.9,194,194,249.9,125,250z
			 M125,11.5C62.3,11.5,11.5,62.3,11.5,125S62.3,238.5,125,238.5c62.7,0,113.5-50.8,113.5-113.5C238.4,62.4,187.6,11.6,125,11.5z"/>
	</g>
	<g id="Gruppe_584" transform="translate(678.389 7744.97)">
		<path id="Pfad_633" class="st1" d="M161,69h-26.1c-2.5,0-4.5,2-4.5,4.5s2,4.5,4.5,4.5l0,0H161c7.8,0,14.2,6.4,14.2,14.2v48.6
			c0,7.8-6.4,14.2-14.2,14.2H57.9c-7.8,0-14.2-6.4-14.2-14.2V92.2c0-7.8,6.4-14.2,14.2-14.2h25c2.5,0,4.5-2,4.5-4.5s-2-4.5-4.5-4.5
			h-25c-12.8,0-23.1,10.4-23.1,23.1v48.6c0,12.8,10.4,23.1,23.1,23.1H161c12.8,0,23.1-10.4,23.1-23.1V92.2
			C184.1,79.4,173.8,69.1,161,69z"/>
		<path id="Pfad_634" class="st1" d="M86.3,96.5c-2.4-2.8-6.7-3.1-9.5-0.6c-2.8,2.4-3.1,6.7-0.6,9.5l28.2,32.2
			c2.4,2.8,6.7,3.1,9.5,0.6c0.2-0.2,0.4-0.4,0.6-0.6l28.2-32.2c2.4-2.8,2-7.1-0.8-9.5c-2.8-2.3-6.8-2-9.3,0.6l-16.4,18.8V42.1
			c0-3.7-3-6.7-6.7-6.7c-3.7,0-6.7,3-6.7,6.7v73.2L86.3,96.5z"/>
	</g>
</g>
</svg>
